<?xml version="1.0" encoding="UTF-8" standalone="no"?>
<!-- Created with Inkscape (http://www.inkscape.org/) -->
<svg xmlns:dc="http://purl.org/dc/elements/1.1/" xmlns:cc="http://creativecommons.org/ns#" xmlns:rdf="http://www.w3.org/1999/02/22-rdf-syntax-ns#" xmlns:svg="http://www.w3.org/2000/svg" xmlns="http://www.w3.org/2000/svg" xmlns:sodipodi="http://sodipodi.sourceforge.net/DTD/sodipodi-0.dtd" xmlns:inkscape="http://www.inkscape.org/namespaces/inkscape" sodipodi:docname="Phase control 2.svg" inkscape:version="0.48.4 r9939" version="1.1" onload="Start(evt)" id="svg3035" height="1052.3622047" width="744.09448819">
  <sodipodi:namedview id="base" pagecolor="#ffffff" bordercolor="#666666" borderopacity="1.0" inkscape:pageopacity="0.0" inkscape:pageshadow="2" inkscape:zoom="0.9939163" inkscape:cx="326.34087" inkscape:cy="962.67304" inkscape:document-units="px" inkscape:current-layer="layer2" showgrid="true" inkscape:window-width="1022" inkscape:window-height="712" inkscape:window-x="-2" inkscape:window-y="-4" inkscape:window-maximized="1" inkscape:snap-grids="true" showguides="true" inkscape:guide-bbox="true" inkscape:snap-to-guides="true" inkscape:snap-bbox="true">
    <inkscape:grid spacingy="1px" spacingx="1px" snapvisiblegridlinesonly="true" enabled="true" visible="true" empspacing="5" id="grid3925" type="xygrid"/>
    <sodipodi:guide orientation="0,1" position="202,945" id="guide4093"/>
  </sodipodi:namedview>
  <script id="script" type="text/ecmascript">
	
	var time = 5;
	var delta_time = 0.01;
	var dir = 1;
	var max_time = 5;
	var conduction_x = -38.0;
	var mask_x = -25.0;
	var max_distance = 25;
	var power = 0;
	var delay;
	
	function Start(evt) {
		mask       = evt.target.ownerDocument.getElementById("g3937");
		PowerVal   = evt.target.ownerDocument.getElementById("tspan3025");

		Slide();
	}
	function Slide() {
		time = time + delta_time * dir;
		if (time &gt; max_time || time &lt; 0)
			dir *= -1;
		x_pos = (time / max_time) * max_distance;
		mask_x_pos = mask_x + x_pos;
		mask.setAttribute("transform", "translate(" +mask_x_pos+ ", 0.0 )");
		mask.setAttribute("visibility","hidden");
		delay = time / max_time * Math.PI;
		power = 100 * ((Math.PI - delay)/Math.PI + Math.sin(2 * delay)/2/Math.PI);
		power = Math.round(power);
		PowerVal.textContent = power+"%";
		// Repeat
		setTimeout("Slide()", delta_time)
	}
	window.translate = Slide;
	
/*

Vload=Vpeak*sqrt((2p-2f+sin2f)/4p)
Power = PkPower * (2p-2f+sin2f)/4p


Where
f = triac-angle-delay=triggering-angle
p = (pi)

for f = 0, triac is full on
*/
	
	
	</script>
  <defs id="defs3037"/>
  <metadata id="metadata3040">
    <rdf:RDF>
      <cc:Work rdf:about="">
        <dc:format>image/svg+xml</dc:format>
        <dc:type rdf:resource="http://purl.org/dc/dcmitype/StillImage"/>
        <dc:title/>
      </cc:Work>
    </rdf:RDF>
  </metadata>
  <g style="display:inline" inkscape:label="Red" inkscape:groupmode="layer" id="layer1" sodipodi:insensitive="true">
    <path style="color:#000000;fill:#ff2828;fill-opacity:1;stroke:#000000;stroke-width:1.39944589;stroke-linecap:butt;stroke-linejoin:miter;stroke-miterlimit:4;stroke-opacity:1;stroke-dasharray:none;stroke-dashoffset:0;marker:none;visibility:visible;display:inline;overflow:visible;enable-background:accumulate" d="m 15.015085,107.27983 c 0.338728,-4.16165 0.983991,-7.577511 1.322719,-11.703591 0.338728,-4.12608 0.677456,-8.216395 1.016184,-12.236308 0.338728,-4.019914 0.677456,-7.968965 1.016185,-11.813931 0.338728,-3.844965 0.677456,-7.585183 1.016184,-11.189412 0.338728,-3.604229 0.677456,-7.071619 1.016184,-10.373442 0.338728,-3.301822 0.677456,-6.437055 1.016184,-9.379977 0.338728,-2.942922 0.677456,-5.692352 1.016184,-8.226019 0.338728,-2.533667 0.677457,-4.850252 1.016185,-6.931312 0.338728,-2.08106 0.677456,-3.925162 1.016184,-5.518007 0.338728,-1.592846 0.677456,-2.932913 1.016184,-4.010289 0.338728,-1.077377 0.677456,-1.890479 1.016184,-2.433953 0.338728,-0.543475 0.677456,-0.8157 1.016184,-0.815972 0.338729,-2.72e-4 0.677457,0.273038 1.016185,0.815972 0.338728,0.542934 0.677456,1.357102 1.016184,2.433953 0.338728,1.07685 0.677456,2.417946 1.016184,4.010289 0.338728,1.592342 0.677456,3.437419 1.016184,5.518007 0.338728,2.080588 0.677457,4.398077 1.016185,6.931312 0.338728,2.533235 0.677456,5.283483 1.016184,8.226019 0.338728,2.942537 0.677456,6.078486 1.016184,9.379977 0.338728,3.301492 0.677456,6.769485 1.016184,10.373442 0.338728,3.603956 0.677456,7.344655 1.016184,11.189412 0.338729,3.844757 0.677457,7.794158 1.016185,11.813931 0.338728,4.019772 0.677456,8.110299 1.016184,12.236308 0.338728,4.126009 0.9825,7.541941 1.321228,11.703591" id="path3937" inkscape:connector-curvature="0"/>
    <path id="path3937-1" title="sin(x)" d="m 40.265278,107.29912 c 0.338728,4.16165 0.983991,7.57751 1.322719,11.70359 0.338728,4.12608 0.677456,8.21639 1.016184,12.2363 0.338728,4.01992 0.677456,7.96897 1.016185,11.81393 0.338728,3.84497 0.677456,7.58519 1.016184,11.18942 0.338728,3.60423 0.677456,7.07162 1.016184,10.37344 0.338728,3.30182 0.677456,6.43705 1.016184,9.37998 0.338728,2.94292 0.677456,5.69235 1.016184,8.22601 0.338728,2.53367 0.677457,4.85026 1.016185,6.93132 0.338728,2.08106 0.677456,3.92516 1.016184,5.518 0.338724,1.59285 0.677454,2.93292 1.016184,4.01029 0.33872,1.07738 0.67745,1.89048 1.01618,2.43396 0.33873,0.54347 0.67746,0.8157 1.01618,0.81597 0.33873,2.7e-4 0.67746,-0.27304 1.01619,-0.81597 0.33873,-0.54294 0.67746,-1.35711 1.01618,-2.43396 0.33873,-1.07685 0.67746,-2.41794 1.01619,-4.01029 0.33873,-1.59234 0.67745,-3.43742 1.01618,-5.518 0.33873,-2.08059 0.67746,-4.39808 1.01619,-6.93132 0.33872,-2.53323 0.67745,-5.28348 1.01618,-8.22601 0.33873,-2.94254 0.67746,-6.07849 1.01618,-9.37998 0.33873,-3.30149 0.67746,-6.76949 1.01619,-10.37344 0.33873,-3.60396 0.67745,-7.34466 1.01618,-11.18942 0.33873,-3.84475 0.67746,-7.79415 1.01619,-11.81393 0.33873,-4.01977 0.67745,-8.11029 1.01618,-12.2363 0.33873,-4.12601 0.9825,-7.54194 1.32123,-11.70359" style="color:#000000;fill:#ff2828;fill-opacity:1;stroke:#000000;stroke-width:1.39944589;stroke-linecap:butt;stroke-linejoin:miter;stroke-miterlimit:4;stroke-opacity:1;stroke-dasharray:none;stroke-dashoffset:0;marker:none;visibility:visible;display:inline;overflow:visible;enable-background:accumulate" inkscape:connector-curvature="0" sodipodi:nodetypes="csssssssssssssssssssssssc"/>
    <path id="path3937-1-7" title="sin(x)" d="m 65.070985,107.26364 c 0.33873,-4.16165 0.98399,-7.577506 1.32272,-11.703587 0.33873,-4.12608 0.67746,-8.21639 1.01619,-12.2363 0.33872,-4.01992 0.67745,-7.96897 1.01618,-11.81393 0.33873,-3.84497 0.67746,-7.58519 1.01618,-11.18942 0.33873,-3.60423 0.67746,-7.07162 1.01619,-10.37344 0.33873,-3.30182 0.67745,-6.437054 1.01618,-9.379984 0.33873,-2.94292 0.67746,-5.69235 1.01619,-8.22601 0.33872,-2.53367 0.67745,-4.85026 1.01618,-6.93132 0.33873,-2.08106 0.67746,-3.92516 1.01619,-5.518 0.33872,-1.59285 0.67745,-2.93292 1.01618,-4.01029 0.33872,-1.07738 0.67745,-1.89048 1.01618,-2.43396 0.33873,-0.54347 0.67746,-0.8157 1.01618,-0.81597 0.33873,-2.7e-4 0.67746,0.27304 1.01619,0.81597 0.33873,0.54294 0.67746,1.35711 1.01618,2.43396 0.33873,1.07685 0.67746,2.41794 1.01619,4.01029 0.33873,1.59234 0.67745,3.43742 1.01618,5.518 0.33873,2.08059 0.67746,4.39808 1.01619,6.93132 0.33872,2.53323 0.67745,5.28348 1.01618,8.22601 0.33873,2.94254 0.67746,6.078494 1.01618,9.379984 0.33873,3.30149 0.67746,6.76949 1.01619,10.37344 0.33873,3.60396 0.67745,7.34466 1.01618,11.18942 0.33873,3.84475 0.67746,7.79415 1.01619,11.81393 0.33873,4.01977 0.67745,8.11029 1.01618,12.2363 0.33873,4.126011 0.9825,7.541937 1.32123,11.703587" style="color:#000000;fill:#ff2828;fill-opacity:1;stroke:#000000;stroke-width:1.39944589;stroke-linecap:butt;stroke-linejoin:miter;stroke-miterlimit:4;stroke-opacity:1;stroke-dasharray:none;stroke-dashoffset:0;marker:none;visibility:visible;display:inline;overflow:visible;enable-background:accumulate" inkscape:connector-curvature="0" sodipodi:nodetypes="csssssssssssssssssssssssc"/>
    <path id="path3937-1-4" title="sin(x)" d="m 90.031905,107.22489 c 0.33873,4.16165 0.98399,7.57751 1.32272,11.70359 0.33873,4.12608 0.67746,8.2164 1.01619,12.23631 0.33872,4.01992 0.67745,7.96897 1.01618,11.81393 0.33873,3.84497 0.67746,7.58519 1.01618,11.18942 0.33873,3.60423 0.67746,7.07162 1.01619,10.37344 0.33873,3.30182 0.67745,6.43705 1.01618,9.37998 0.33873,2.94292 0.67746,5.69235 1.01619,8.22601 0.33872,2.53367 0.67745,4.85026 1.01618,6.93132 0.33873,2.08106 0.67746,3.92516 1.01619,5.518 0.338716,1.59285 0.677445,2.93292 1.016175,4.01029 0.33872,1.07738 0.67745,1.89048 1.01618,2.43396 0.33873,0.54347 0.67746,0.8157 1.01618,0.81597 0.33873,2.7e-4 0.67746,-0.27304 1.01619,-0.81597 0.33873,-0.54294 0.67746,-1.35711 1.01618,-2.43396 0.33873,-1.07685 0.67746,-2.41794 1.01619,-4.01029 0.33873,-1.59234 0.67745,-3.43742 1.01618,-5.518 0.33873,-2.08059 0.67746,-4.39808 1.01619,-6.93132 0.33872,-2.53323 0.67745,-5.28348 1.01618,-8.22601 0.33873,-2.94254 0.67746,-6.07849 1.01618,-9.37998 0.33873,-3.30149 0.67746,-6.76949 1.01619,-10.37344 0.33873,-3.60396 0.67745,-7.34466 1.01618,-11.18942 0.33873,-3.84475 0.67746,-7.79415 1.01619,-11.81393 0.33873,-4.01977 0.67745,-8.1103 1.01618,-12.23631 0.33873,-4.12601 0.9825,-7.54194 1.32123,-11.70359" style="color:#000000;fill:#ff2828;fill-opacity:1;stroke:#000000;stroke-width:1.39944589;stroke-linecap:butt;stroke-linejoin:miter;stroke-miterlimit:4;stroke-opacity:1;stroke-dasharray:none;stroke-dashoffset:0;marker:none;visibility:visible;display:inline;overflow:visible;enable-background:accumulate" inkscape:connector-curvature="0" sodipodi:nodetypes="csssssssssssssssssssssssc"/>
    <path id="path3937-1-0" title="sin(x)" d="m 115.1172,107.27211 c 0.33873,-4.16165 0.98399,-7.577512 1.32272,-11.703592 0.33873,-4.12608 0.67746,-8.21639 1.01619,-12.2363 0.33872,-4.01992 0.67745,-7.96897 1.01618,-11.81393 0.33873,-3.84497 0.67746,-7.58519 1.01618,-11.18942 0.33873,-3.60423 0.67746,-7.07162 1.01619,-10.37344 0.33873,-3.30182 0.67745,-6.43705 1.01618,-9.37998 0.33873,-2.94292 0.67746,-5.69235 1.01619,-8.226014 0.33872,-2.53367 0.67745,-4.85026 1.01618,-6.93132 0.33873,-2.08106 0.67746,-3.92516 1.01619,-5.518 0.33872,-1.59285 0.67745,-2.93292 1.01618,-4.01029 0.33872,-1.07738 0.67745,-1.89048 1.01618,-2.43396 0.33873,-0.54347 0.67746,-0.8157 1.01618,-0.81597 0.33873,-2.7e-4 0.67746,0.27304 1.01619,0.81597 0.33873,0.54294 0.67746,1.35711 1.01618,2.43396 0.33873,1.07685 0.67746,2.41794 1.01619,4.01029 0.33873,1.59234 0.67745,3.43742 1.01618,5.518 0.33873,2.08059 0.67746,4.39808 1.01619,6.93132 0.33872,2.533234 0.67745,5.283484 1.01618,8.226014 0.33873,2.94254 0.67746,6.07849 1.01618,9.37998 0.33873,3.30149 0.67746,6.76949 1.01619,10.37344 0.33873,3.60396 0.67745,7.34466 1.01618,11.18942 0.33873,3.84475 0.67746,7.79415 1.01619,11.81393 0.33873,4.01977 0.67745,8.11029 1.01618,12.2363 0.33873,4.12601 0.9825,7.541942 1.32123,11.703592" style="color:#000000;fill:#ff2828;fill-opacity:1;stroke:#000000;stroke-width:1.39944589;stroke-linecap:butt;stroke-linejoin:miter;stroke-miterlimit:4;stroke-opacity:1;stroke-dasharray:none;stroke-dashoffset:0;marker:none;visibility:visible;display:inline;overflow:visible;enable-background:accumulate" inkscape:connector-curvature="0" sodipodi:nodetypes="csssssssssssssssssssssssc"/>
    <path id="path3937-1-9" title="sin(x)" d="m 140.1172,107.24941 c 0.33873,4.16165 0.98399,7.57751 1.32272,11.70359 0.33873,4.12608 0.67746,8.21639 1.01619,12.2363 0.33872,4.01992 0.67745,7.96897 1.01618,11.81393 0.33873,3.84497 0.67746,7.58519 1.01618,11.18942 0.33873,3.60423 0.67746,7.07162 1.01619,10.37344 0.33873,3.30182 0.67745,6.43705 1.01618,9.37998 0.33873,2.94292 0.67746,5.69235 1.01619,8.22601 0.33872,2.53367 0.67745,4.85026 1.01618,6.93132 0.33873,2.08106 0.67746,3.92516 1.01619,5.518 0.33872,1.59285 0.67745,2.93292 1.01618,4.01029 0.33872,1.07738 0.67745,1.89048 1.01618,2.43396 0.33873,0.54347 0.67746,0.8157 1.01618,0.81597 0.33873,2.7e-4 0.67746,-0.27304 1.01619,-0.81597 0.33873,-0.54294 0.67746,-1.35711 1.01618,-2.43396 0.33873,-1.07685 0.67746,-2.41794 1.01619,-4.01029 0.33873,-1.59234 0.67745,-3.43742 1.01618,-5.518 0.33873,-2.08059 0.67746,-4.39808 1.01619,-6.93132 0.33872,-2.53323 0.67745,-5.28348 1.01618,-8.22601 0.33873,-2.94254 0.67746,-6.07849 1.01618,-9.37998 0.33873,-3.30149 0.67746,-6.76949 1.01619,-10.37344 0.33873,-3.60396 0.67745,-7.34466 1.01618,-11.18942 0.33873,-3.84475 0.67746,-7.79415 1.01619,-11.81393 0.33873,-4.01977 0.67745,-8.11029 1.01618,-12.2363 0.33873,-4.12601 0.9825,-7.54194 1.32123,-11.70359" style="color:#000000;fill:#ff2828;fill-opacity:1;stroke:#000000;stroke-width:1.39944589;stroke-linecap:butt;stroke-linejoin:miter;stroke-miterlimit:4;stroke-opacity:1;stroke-dasharray:none;stroke-dashoffset:0;marker:none;visibility:visible;display:inline;overflow:visible;enable-background:accumulate" inkscape:connector-curvature="0" sodipodi:nodetypes="csssssssssssssssssssssssc"/>
    <path id="path3937-1-48" title="sin(x)" d="m 165.19123,107.3857 c 0.33873,-4.16165 0.98399,-7.57751 1.32272,-11.70359 0.33873,-4.12608 0.67746,-8.21639 1.01619,-12.2363 0.33872,-4.01992 0.67745,-7.96897 1.01618,-11.81393 0.33873,-3.84497 0.67746,-7.58519 1.01618,-11.18942 0.33873,-3.60423 0.67746,-7.07162 1.01619,-10.37344 0.33873,-3.30182 0.67745,-6.43705 1.01618,-9.37998 0.33873,-2.942924 0.67746,-5.692354 1.01619,-8.226014 0.33872,-2.53367 0.67745,-4.85026 1.01618,-6.93132 0.33873,-2.08106 0.67746,-3.92516 1.01619,-5.518 0.33872,-1.59285 0.67745,-2.93292 1.01618,-4.01029 0.33872,-1.07738 0.67745,-1.89048 1.01618,-2.43396 0.33873,-0.54347 0.67746,-0.8157 1.01618,-0.81597 0.33873,-2.7e-4 0.67746,0.27304 1.01619,0.81597 0.33873,0.54294 0.67746,1.35711 1.01618,2.43396 0.33873,1.07685 0.67746,2.41794 1.01619,4.01029 0.33873,1.59234 0.67745,3.43742 1.01618,5.518 0.33873,2.08059 0.67746,4.39808 1.01619,6.93132 0.33872,2.53323 0.67745,5.28348 1.01618,8.226014 0.33873,2.94254 0.67746,6.07849 1.01618,9.37998 0.33873,3.30149 0.67746,6.76949 1.01619,10.37344 0.33873,3.60396 0.67745,7.34466 1.01618,11.18942 0.33873,3.84475 0.67746,7.79415 1.01619,11.81393 0.33873,4.01977 0.67745,8.11029 1.01618,12.2363 0.33873,4.12601 0.9825,7.54194 1.32123,11.70359" style="color:#000000;fill:#ff2828;fill-opacity:1;stroke:#000000;stroke-width:1.39944589;stroke-linecap:butt;stroke-linejoin:miter;stroke-miterlimit:4;stroke-opacity:1;stroke-dasharray:none;stroke-dashoffset:0;marker:none;visibility:visible;display:inline;overflow:visible;enable-background:accumulate" inkscape:connector-curvature="0" sodipodi:nodetypes="csssssssssssssssssssssssc"/>
    <path id="path3937-1-8" title="sin(x)" d="m 190.19123,107.363 c 0.33873,4.16165 0.98399,7.57751 1.32272,11.70359 0.33873,4.12609 0.67746,8.2164 1.01619,12.23631 0.33872,4.01992 0.67745,7.96897 1.01618,11.81393 0.33873,3.84497 0.67746,7.58519 1.01618,11.18942 0.33873,3.60423 0.67746,7.07162 1.01619,10.37344 0.33873,3.30182 0.67745,6.43705 1.01618,9.37998 0.33873,2.94292 0.67746,5.69235 1.01619,8.22601 0.33872,2.53367 0.67745,4.85026 1.01618,6.93132 0.33873,2.08106 0.67746,3.92516 1.01619,5.518 0.33872,1.59285 0.67745,2.93292 1.01618,4.01029 0.33872,1.07738 0.67745,1.89048 1.01618,2.43396 0.33873,0.54347 0.67746,0.8157 1.01618,0.81597 0.33873,2.7e-4 0.67746,-0.27304 1.01619,-0.81597 0.33873,-0.54294 0.67746,-1.35711 1.01618,-2.43396 0.33873,-1.07685 0.67746,-2.41794 1.01619,-4.01029 0.33873,-1.59234 0.67745,-3.43742 1.01618,-5.518 0.33873,-2.08059 0.67746,-4.39808 1.01619,-6.93132 0.33872,-2.53323 0.67745,-5.28348 1.01618,-8.22601 0.33873,-2.94254 0.67746,-6.07849 1.01618,-9.37998 0.33873,-3.30149 0.67746,-6.76949 1.01619,-10.37344 0.33873,-3.60396 0.67745,-7.34466 1.01618,-11.18942 0.33873,-3.84475 0.67746,-7.79415 1.01619,-11.81393 0.33873,-4.01977 0.67745,-8.11029 1.01618,-12.23631 0.33873,-4.12601 0.9825,-7.54194 1.32123,-11.70359" style="color:#000000;fill:#ff2828;fill-opacity:1;stroke:#000000;stroke-width:1.39944589;stroke-linecap:butt;stroke-linejoin:miter;stroke-miterlimit:4;stroke-opacity:1;stroke-dasharray:none;stroke-dashoffset:0;marker:none;visibility:visible;display:inline;overflow:visible;enable-background:accumulate" inkscape:connector-curvature="0" sodipodi:nodetypes="csssssssssssssssssssssssc"/>
    <path id="path3937-1-2" title="sin(x)" d="m 215.19123,107.42018 c 0.33873,-4.16165 0.98399,-7.577509 1.32272,-11.703589 0.33873,-4.12608 0.67746,-8.21639 1.01619,-12.2363 0.33872,-4.01992 0.67745,-7.96897 1.01618,-11.81393 0.33873,-3.84497 0.67746,-7.58519 1.01618,-11.18942 0.33873,-3.60423 0.67746,-7.07162 1.01619,-10.37344 0.33873,-3.30182 0.67745,-6.43705 1.01618,-9.37998 0.33873,-2.94292 0.67746,-5.69235 1.01619,-8.226014 0.33872,-2.53367 0.67745,-4.85026 1.01618,-6.93132 0.33873,-2.08106 0.67746,-3.92516 1.01619,-5.518 0.33872,-1.59285 0.67745,-2.93292 1.01618,-4.01029 0.33872,-1.07738 0.67745,-1.89048 1.01618,-2.43396 0.33873,-0.54347 0.67746,-0.8157 1.01618,-0.81597 0.33873,-2.7e-4 0.67746,0.27304 1.01619,0.81597 0.33873,0.54294 0.67746,1.35711 1.01618,2.43396 0.33873,1.07685 0.67746,2.41794 1.01619,4.01029 0.33873,1.59234 0.67745,3.43742 1.01618,5.518 0.33873,2.08059 0.67746,4.39808 1.01619,6.93132 0.33872,2.533234 0.67745,5.283484 1.01618,8.226014 0.33873,2.94254 0.67746,6.07849 1.01618,9.37998 0.33873,3.30149 0.67746,6.76949 1.01619,10.37344 0.33873,3.60396 0.67745,7.34466 1.01618,11.18942 0.33873,3.84475 0.67746,7.79415 1.01619,11.81393 0.33873,4.01977 0.67745,8.11029 1.01618,12.2363 0.33873,4.12601 0.9825,7.541939 1.32123,11.703589" style="color:#000000;fill:#ff2828;fill-opacity:1;stroke:#000000;stroke-width:1.39944589;stroke-linecap:butt;stroke-linejoin:miter;stroke-miterlimit:4;stroke-opacity:1;stroke-dasharray:none;stroke-dashoffset:0;marker:none;visibility:visible;display:inline;overflow:visible;enable-background:accumulate" inkscape:connector-curvature="0" sodipodi:nodetypes="csssssssssssssssssssssssc"/>
    <path id="path3937-1-45" title="sin(x)" d="m 240.1172,107.23016 c 0.33873,4.16165 0.98399,7.57751 1.32272,11.70359 0.33873,4.12608 0.67746,8.21639 1.01619,12.2363 0.33872,4.01992 0.67745,7.96897 1.01618,11.81393 0.33873,3.84497 0.67746,7.58519 1.01618,11.18942 0.33873,3.60423 0.67746,7.07162 1.01619,10.37344 0.33873,3.30182 0.67745,6.43705 1.01618,9.37998 0.33873,2.94292 0.67746,5.69235 1.01619,8.22601 0.33872,2.53367 0.67745,4.85026 1.01618,6.93132 0.33873,2.08106 0.67746,3.92516 1.01619,5.518 0.33872,1.59285 0.67745,2.93292 1.01618,4.01029 0.33872,1.07738 0.67745,1.89048 1.01618,2.43396 0.33873,0.54347 0.67746,0.8157 1.01618,0.81597 0.33873,2.7e-4 0.67746,-0.27304 1.01619,-0.81597 0.33873,-0.54294 0.67746,-1.35711 1.01618,-2.43396 0.33873,-1.07685 0.67746,-2.41794 1.01619,-4.01029 0.33873,-1.59234 0.67745,-3.43742 1.01618,-5.518 0.33873,-2.08059 0.67746,-4.39808 1.01619,-6.93132 0.33872,-2.53323 0.67745,-5.28348 1.01618,-8.22601 0.33873,-2.94254 0.67746,-6.07849 1.01618,-9.37998 0.33873,-3.30149 0.67746,-6.76949 1.01619,-10.37344 0.33873,-3.60396 0.67745,-7.34466 1.01618,-11.18942 0.33873,-3.84475 0.67746,-7.79415 1.01619,-11.81393 0.33873,-4.01977 0.67745,-8.11029 1.01618,-12.2363 0.33873,-4.12601 0.9825,-7.54194 1.32123,-11.70359" style="color:#000000;fill:#ff2828;fill-opacity:1;stroke:#000000;stroke-width:1.39944589;stroke-linecap:butt;stroke-linejoin:miter;stroke-miterlimit:4;stroke-opacity:1;stroke-dasharray:none;stroke-dashoffset:0;marker:none;visibility:visible;display:inline;overflow:visible;enable-background:accumulate" inkscape:connector-curvature="0" sodipodi:nodetypes="csssssssssssssssssssssssc"/>
    <path id="path3937-1-5" title="sin(x)" d="m 265.1172,107.37555 c 0.33873,-4.16165 0.98399,-7.57751 1.32272,-11.70359 0.33873,-4.12608 0.67746,-8.21639 1.01619,-12.2363 0.33872,-4.01992 0.67745,-7.96897 1.01618,-11.81393 0.33873,-3.84497 0.67746,-7.58519 1.01618,-11.18942 0.33873,-3.60423 0.67746,-7.07162 1.01619,-10.37344 0.33873,-3.30182 0.67745,-6.43705 1.01618,-9.37998 0.33873,-2.94292 0.67746,-5.69235 1.01619,-8.22601 0.33872,-2.53367 0.67745,-4.85026 1.01618,-6.93132 0.33873,-2.08106 0.67746,-3.92516 1.01619,-5.518 0.33872,-1.592854 0.67745,-2.932924 1.01618,-4.010294 0.33872,-1.07738 0.67745,-1.89048 1.01618,-2.43396 0.33873,-0.54347 0.67746,-0.8157 1.01618,-0.81597 0.33873,-2.7e-4 0.67746,0.27304 1.01619,0.81597 0.33873,0.54294 0.67746,1.35711 1.01618,2.43396 0.33873,1.07685 0.67746,2.41794 1.01619,4.010294 0.33873,1.59234 0.67745,3.43742 1.01618,5.518 0.33873,2.08059 0.67746,4.39808 1.01619,6.93132 0.33872,2.53323 0.67745,5.28348 1.01618,8.22601 0.33873,2.94254 0.67746,6.07849 1.01618,9.37998 0.33873,3.30149 0.67746,6.76949 1.01619,10.37344 0.33873,3.60396 0.67745,7.34466 1.01618,11.18942 0.33873,3.84475 0.67746,7.79415 1.01619,11.81393 0.33873,4.01977 0.67745,8.11029 1.01618,12.2363 0.33873,4.12601 0.9825,7.54194 1.32123,11.70359" style="color:#000000;fill:#ff2828;fill-opacity:1;stroke:#000000;stroke-width:1.39944589;stroke-linecap:butt;stroke-linejoin:miter;stroke-miterlimit:4;stroke-opacity:1;stroke-dasharray:none;stroke-dashoffset:0;marker:none;visibility:visible;display:inline;overflow:visible;enable-background:accumulate" inkscape:connector-curvature="0" sodipodi:nodetypes="csssssssssssssssssssssssc"/>
    <path id="path3937-1-1" title="sin(x)" d="m 290.04316,107.29912 c 0.33873,4.16165 0.98399,7.57751 1.32272,11.70359 0.33873,4.12608 0.67746,8.21639 1.01619,12.2363 0.33872,4.01992 0.67745,7.96897 1.01618,11.81393 0.33873,3.84497 0.67746,7.58519 1.01618,11.18942 0.33873,3.60423 0.67746,7.07162 1.01619,10.37344 0.33873,3.30182 0.67745,6.43705 1.01618,9.37998 0.33873,2.94292 0.67746,5.69235 1.01619,8.22601 0.33872,2.53367 0.67745,4.85026 1.01618,6.93132 0.33873,2.08106 0.67746,3.92516 1.01619,5.518 0.33872,1.59285 0.67745,2.93292 1.01618,4.01029 0.33872,1.07738 0.67745,1.89048 1.01618,2.43396 0.33873,0.54347 0.67746,0.8157 1.01618,0.81597 0.33873,2.7e-4 0.67746,-0.27304 1.01619,-0.81597 0.33873,-0.54294 0.67746,-1.35711 1.01618,-2.43396 0.33873,-1.07685 0.67746,-2.41794 1.01619,-4.01029 0.33873,-1.59234 0.67745,-3.43742 1.01618,-5.518 0.33873,-2.08059 0.67746,-4.39808 1.01619,-6.93132 0.33872,-2.53323 0.67745,-5.28348 1.01618,-8.22601 0.33873,-2.94254 0.67746,-6.07849 1.01618,-9.37998 0.33873,-3.30149 0.67746,-6.76949 1.01619,-10.37344 0.33873,-3.60396 0.67745,-7.34466 1.01618,-11.18942 0.33873,-3.84475 0.67746,-7.79415 1.01619,-11.81393 0.33873,-4.01977 0.67745,-8.11029 1.01618,-12.2363 0.33873,-4.12601 0.9825,-7.54194 1.32123,-11.70359" style="color:#000000;fill:#ff2828;fill-opacity:1;stroke:#000000;stroke-width:1.39944589;stroke-linecap:butt;stroke-linejoin:miter;stroke-miterlimit:4;stroke-opacity:1;stroke-dasharray:none;stroke-dashoffset:0;marker:none;visibility:visible;display:inline;overflow:visible;enable-background:accumulate" inkscape:connector-curvature="0" sodipodi:nodetypes="csssssssssssssssssssssssc"/>
    <path id="path3937-1-71" title="sin(x)" d="m 315.1172,107.31166 c 0.33873,-4.16165 0.98399,-7.577506 1.32272,-11.703586 0.33873,-4.12608 0.67746,-8.21639 1.01619,-12.2363 0.33872,-4.01992 0.67745,-7.96897 1.01618,-11.81393 0.33873,-3.84497 0.67746,-7.58519 1.01618,-11.18942 0.33873,-3.60423 0.67746,-7.07162 1.01619,-10.37344 0.33873,-3.30182 0.67745,-6.43705 1.01618,-9.37998 0.33873,-2.942924 0.67746,-5.692354 1.01619,-8.226014 0.33872,-2.53367 0.67745,-4.85026 1.01618,-6.93132 0.33873,-2.08106 0.67746,-3.92516 1.01619,-5.518 0.33872,-1.59285 0.67745,-2.93292 1.01618,-4.01029 0.33872,-1.07738 0.67745,-1.89048 1.01618,-2.43396 0.33873,-0.54347 0.67746,-0.8157 1.01618,-0.81597 0.33873,-2.7e-4 0.67746,0.27304 1.01619,0.81597 0.33873,0.54294 0.67746,1.35711 1.01618,2.43396 0.33873,1.07685 0.67746,2.41794 1.01619,4.01029 0.33873,1.59234 0.67745,3.43742 1.01618,5.518 0.33873,2.08059 0.67746,4.39808 1.01619,6.93132 0.33872,2.53323 0.67745,5.28348 1.01618,8.226014 0.33873,2.94254 0.67746,6.07849 1.01618,9.37998 0.33873,3.30149 0.67746,6.76949 1.01619,10.37344 0.33873,3.60396 0.67745,7.34466 1.01618,11.18942 0.33873,3.84475 0.67746,7.79415 1.01619,11.81393 0.33873,4.01977 0.67745,8.11029 1.01618,12.2363 0.33873,4.12601 0.9825,7.541936 1.32123,11.703586" style="color:#000000;fill:#ff2828;fill-opacity:1;stroke:#000000;stroke-width:1.39944589;stroke-linecap:butt;stroke-linejoin:miter;stroke-miterlimit:4;stroke-opacity:1;stroke-dasharray:none;stroke-dashoffset:0;marker:none;visibility:visible;display:inline;overflow:visible;enable-background:accumulate" inkscape:connector-curvature="0" sodipodi:nodetypes="csssssssssssssssssssssssc"/>
    <path id="path3937-1-15" title="sin(x)" d="m 340.15168,107.29912 c 0.33873,4.16165 0.98399,7.57751 1.32272,11.70359 0.33873,4.12608 0.67746,8.21639 1.01619,12.2363 0.33872,4.01992 0.67745,7.96897 1.01618,11.81393 0.33873,3.84497 0.67746,7.58519 1.01618,11.18942 0.33873,3.60423 0.67746,7.07162 1.01619,10.37344 0.33873,3.30182 0.67745,6.43705 1.01618,9.37998 0.33873,2.94292 0.67746,5.69235 1.01619,8.22601 0.33872,2.53367 0.67745,4.85026 1.01618,6.93132 0.33873,2.08106 0.67746,3.92516 1.01619,5.518 0.33872,1.59285 0.67745,2.93292 1.01618,4.01029 0.33872,1.07738 0.67745,1.89048 1.01618,2.43396 0.33873,0.54347 0.67746,0.8157 1.01618,0.81597 0.33873,2.7e-4 0.67746,-0.27304 1.01619,-0.81597 0.33873,-0.54294 0.67746,-1.35711 1.01618,-2.43396 0.33873,-1.07685 0.67746,-2.41794 1.01619,-4.01029 0.33873,-1.59234 0.67745,-3.43742 1.01618,-5.518 0.33873,-2.08059 0.67746,-4.39808 1.01619,-6.93132 0.33872,-2.53323 0.67745,-5.28348 1.01618,-8.22601 0.33873,-2.94254 0.67746,-6.07849 1.01618,-9.37998 0.33873,-3.30149 0.67746,-6.76949 1.01619,-10.37344 0.33873,-3.60396 0.67745,-7.34466 1.01618,-11.18942 0.33873,-3.84475 0.67746,-7.79415 1.01619,-11.81393 0.33873,-4.01977 0.67745,-8.11029 1.01618,-12.2363 0.33873,-4.12601 0.9825,-7.54194 1.32123,-11.70359" style="color:#000000;fill:#ff2828;fill-opacity:1;stroke:#000000;stroke-width:1.39944589;stroke-linecap:butt;stroke-linejoin:miter;stroke-miterlimit:4;stroke-opacity:1;stroke-dasharray:none;stroke-dashoffset:0;marker:none;visibility:visible;display:inline;overflow:visible;enable-background:accumulate" inkscape:connector-curvature="0" sodipodi:nodetypes="csssssssssssssssssssssssc"/>
    <path id="path3937-1-27" title="sin(x)" d="m 365.19123,107.34615 c 0.33873,-4.16165 0.98399,-7.577516 1.32272,-11.703596 0.33873,-4.12608 0.67746,-8.21639 1.01619,-12.2363 0.33872,-4.01992 0.67745,-7.96897 1.01618,-11.81393 0.33873,-3.84497 0.67746,-7.58519 1.01618,-11.18942 0.33873,-3.60423 0.67746,-7.07162 1.01619,-10.37344 0.33873,-3.30182 0.67745,-6.43705 1.01618,-9.37998 0.33873,-2.94292 0.67746,-5.69235 1.01619,-8.226014 0.33872,-2.53367 0.67745,-4.85026 1.01618,-6.93132 0.33873,-2.08106 0.67746,-3.92516 1.01619,-5.518 0.33872,-1.59285 0.67745,-2.93292 1.01618,-4.01029 0.33872,-1.07738 0.67745,-1.89048 1.01618,-2.43396 0.33873,-0.54347 0.67746,-0.8157 1.01618,-0.81597 0.33873,-2.7e-4 0.67746,0.27304 1.01619,0.81597 0.33873,0.54294 0.67746,1.35711 1.01618,2.43396 0.33873,1.07685 0.67746,2.41794 1.01619,4.01029 0.33873,1.59234 0.67745,3.43742 1.01618,5.518 0.33873,2.08059 0.67746,4.39808 1.01619,6.93132 0.33872,2.533234 0.67745,5.283484 1.01618,8.226014 0.33873,2.94254 0.67746,6.07849 1.01618,9.37998 0.33873,3.30149 0.67746,6.76949 1.01619,10.37344 0.33873,3.60396 0.67745,7.34466 1.01618,11.18942 0.33873,3.84475 0.67746,7.79415 1.01619,11.81393 0.33873,4.01977 0.67745,8.11029 1.01618,12.2363 0.33873,4.12601 0.9825,7.541946 1.32123,11.703596" style="color:#000000;fill:#ff2828;fill-opacity:1;stroke:#000000;stroke-width:1.39944589;stroke-linecap:butt;stroke-linejoin:miter;stroke-miterlimit:4;stroke-opacity:1;stroke-dasharray:none;stroke-dashoffset:0;marker:none;visibility:visible;display:inline;overflow:visible;enable-background:accumulate" inkscape:connector-curvature="0" sodipodi:nodetypes="csssssssssssssssssssssssc"/>
    <path id="path3937-1-1-1" title="sin(x)" d="m 390.5912,108.06191 c 0.33873,4.16165 0.98399,7.5775 1.32272,11.70358 0.33873,4.12608 0.67746,8.21639 1.01619,12.2363 0.33872,4.01992 0.67745,7.96897 1.01618,11.81393 0.33873,3.84497 0.67746,7.58519 1.01618,11.18942 0.33873,3.60423 0.67746,7.07162 1.01619,10.37344 0.33873,3.30182 0.67745,6.43705 1.01618,9.37998 0.33873,2.94292 0.67746,5.69235 1.01619,8.22601 0.33872,2.53367 0.67745,4.85026 1.01618,6.93132 0.33873,2.08106 0.67746,3.92516 1.01619,5.518 0.33872,1.59285 0.67745,2.93292 1.01618,4.01029 0.33872,1.07738 0.67745,1.89048 1.01618,2.43396 0.33873,0.54347 0.67746,0.8157 1.01618,0.81597 0.33873,2.7e-4 0.67746,-0.27304 1.01619,-0.81597 0.33873,-0.54294 0.67746,-1.35711 1.01618,-2.43396 0.33873,-1.07685 0.67746,-2.41794 1.01619,-4.01029 0.33873,-1.59234 0.67745,-3.43742 1.01618,-5.518 0.33873,-2.08059 0.67746,-4.39808 1.01619,-6.93132 0.33872,-2.53323 0.67745,-5.28348 1.01618,-8.22601 0.33873,-2.94254 0.67746,-6.07849 1.01618,-9.37998 0.33873,-3.30149 0.67746,-6.76949 1.01619,-10.37344 0.33873,-3.60396 0.67745,-7.34466 1.01618,-11.18942 0.33873,-3.84475 0.67746,-7.79415 1.01619,-11.81393 0.33873,-4.01977 0.67745,-8.11029 1.01618,-12.2363 0.33873,-4.12601 0.9825,-7.54193 1.32123,-11.70358" style="color:#000000;fill:#ff2828;fill-opacity:1;stroke:#000000;stroke-width:1.39944589;stroke-linecap:butt;stroke-linejoin:miter;stroke-miterlimit:4;stroke-opacity:1;stroke-dasharray:none;stroke-dashoffset:0;marker:none;visibility:visible;display:inline;overflow:visible;enable-background:accumulate" inkscape:connector-curvature="0" sodipodi:nodetypes="csssssssssssssssssssssssc"/>
    <path id="path3937-1-71-7" title="sin(x)" d="m 415.66524,108.07445 c 0.33873,-4.16165 0.98399,-7.57751 1.32272,-11.70359 0.33873,-4.12608 0.67746,-8.21639 1.01619,-12.2363 0.33872,-4.01992 0.67745,-7.96897 1.01618,-11.81393 0.33873,-3.84497 0.67746,-7.58519 1.01618,-11.18942 0.33873,-3.60423 0.67746,-7.07162 1.01619,-10.37344 0.33873,-3.30182 0.67745,-6.43705 1.01618,-9.37998 0.33873,-2.942924 0.67746,-5.692354 1.01619,-8.226014 0.33872,-2.53367 0.67745,-4.85026 1.01618,-6.93132 0.33873,-2.081061 0.67746,-3.925161 1.01619,-5.518001 0.33872,-1.59285 0.67745,-2.93292 1.01618,-4.01029 0.33872,-1.07738 0.67745,-1.89048 1.01618,-2.43396 0.33873,-0.54347 0.67746,-0.8157 1.01618,-0.81597 0.33873,-2.7e-4 0.67746,0.27304 1.01619,0.81597 0.33873,0.54294 0.67746,1.35711 1.01618,2.43396 0.33873,1.07685 0.67746,2.41794 1.01619,4.01029 0.33873,1.59234 0.67745,3.43742 1.01618,5.518001 0.33873,2.08059 0.67746,4.39808 1.01619,6.93132 0.33872,2.53323 0.67745,5.28348 1.01618,8.226014 0.33873,2.94254 0.67746,6.07849 1.01618,9.37998 0.33873,3.30149 0.67746,6.76949 1.01619,10.37344 0.33873,3.60396 0.67745,7.34466 1.01618,11.18942 0.33873,3.84475 0.67746,7.79415 1.01619,11.81393 0.33873,4.01977 0.67745,8.11029 1.01618,12.2363 0.33873,4.12601 0.9825,7.54194 1.32123,11.70359" style="color:#000000;fill:#ff2828;fill-opacity:1;stroke:#000000;stroke-width:1.39944589;stroke-linecap:butt;stroke-linejoin:miter;stroke-miterlimit:4;stroke-opacity:1;stroke-dasharray:none;stroke-dashoffset:0;marker:none;visibility:visible;display:inline;overflow:visible;enable-background:accumulate" inkscape:connector-curvature="0" sodipodi:nodetypes="csssssssssssssssssssssssc"/>
    <path id="path3937-1-15-4" title="sin(x)" d="m 440.69972,108.06191 c 0.33873,4.16165 0.98399,7.5775 1.32272,11.70358 0.33873,4.12608 0.67746,8.21639 1.01619,12.2363 0.33872,4.01992 0.67745,7.96897 1.01618,11.81393 0.33873,3.84497 0.67746,7.58519 1.01618,11.18942 0.33873,3.60423 0.67746,7.07162 1.01619,10.37344 0.33873,3.30182 0.67745,6.43705 1.01618,9.37998 0.33873,2.94292 0.67746,5.69235 1.01619,8.22601 0.33872,2.53367 0.67745,4.85026 1.01618,6.93132 0.33873,2.08106 0.67746,3.92516 1.01619,5.518 0.33872,1.59285 0.67745,2.93292 1.01618,4.01029 0.33872,1.07738 0.67745,1.89048 1.01618,2.43396 0.33873,0.54347 0.67746,0.8157 1.01618,0.81597 0.33873,2.7e-4 0.67746,-0.27304 1.01619,-0.81597 0.33873,-0.54294 0.67746,-1.35711 1.01618,-2.43396 0.33873,-1.07685 0.67746,-2.41794 1.01619,-4.01029 0.33873,-1.59234 0.67745,-3.43742 1.01618,-5.518 0.33873,-2.08059 0.67746,-4.39808 1.01619,-6.93132 0.33872,-2.53323 0.67745,-5.28348 1.01618,-8.22601 0.33873,-2.94254 0.67746,-6.07849 1.01618,-9.37998 0.33873,-3.30149 0.67746,-6.76949 1.01619,-10.37344 0.33873,-3.60396 0.67745,-7.34466 1.01618,-11.18942 0.33873,-3.84475 0.67746,-7.79415 1.01619,-11.81393 0.33873,-4.01977 0.67745,-8.11029 1.01618,-12.2363 0.33873,-4.12601 0.9825,-7.54193 1.32123,-11.70358" style="color:#000000;fill:#ff2828;fill-opacity:1;stroke:#000000;stroke-width:1.39944589;stroke-linecap:butt;stroke-linejoin:miter;stroke-miterlimit:4;stroke-opacity:1;stroke-dasharray:none;stroke-dashoffset:0;marker:none;visibility:visible;display:inline;overflow:visible;enable-background:accumulate" inkscape:connector-curvature="0" sodipodi:nodetypes="csssssssssssssssssssssssc"/>
    <path id="path3937-1-27-0" title="sin(x)" d="m 465.73927,108.10894 c 0.33873,-4.16165 0.98399,-7.57752 1.32272,-11.7036 0.33873,-4.12608 0.67746,-8.21639 1.01619,-12.2363 0.33872,-4.01992 0.67745,-7.96897 1.01618,-11.81393 0.33873,-3.84497 0.67746,-7.58519 1.01618,-11.18942 0.33873,-3.60423 0.67746,-7.07162 1.01619,-10.37344 0.33873,-3.30182 0.67745,-6.43705 1.01618,-9.37998 0.33873,-2.94292 0.67746,-5.69235 1.01619,-8.226014 0.33872,-2.53367 0.67745,-4.85026 1.01618,-6.93132 0.33873,-2.081061 0.67746,-3.925161 1.01619,-5.518001 0.33872,-1.59285 0.67745,-2.93292 1.01618,-4.01029 0.33872,-1.07738 0.67745,-1.89048 1.01618,-2.43396 0.33873,-0.54347 0.67746,-0.8157 1.01618,-0.81597 0.33873,-2.7e-4 0.67746,0.27304 1.01619,0.81597 0.33873,0.54294 0.67746,1.35711 1.01618,2.43396 0.33873,1.07685 0.67746,2.41794 1.01619,4.01029 0.33873,1.59234 0.67745,3.43742 1.01618,5.518001 0.33873,2.08059 0.67746,4.39808 1.01619,6.93132 0.33872,2.533234 0.67745,5.283484 1.01618,8.226014 0.33873,2.94254 0.67746,6.07849 1.01618,9.37998 0.33873,3.30149 0.67746,6.76949 1.01619,10.37344 0.33873,3.60396 0.67745,7.34466 1.01618,11.18942 0.33873,3.84475 0.67746,7.79415 1.01619,11.81393 0.33873,4.01977 0.67745,8.11029 1.01618,12.2363 0.33873,4.12601 0.9825,7.54195 1.32123,11.7036" style="color:#000000;fill:#ff2828;fill-opacity:1;stroke:#000000;stroke-width:1.39944589;stroke-linecap:butt;stroke-linejoin:miter;stroke-miterlimit:4;stroke-opacity:1;stroke-dasharray:none;stroke-dashoffset:0;marker:none;visibility:visible;display:inline;overflow:visible;enable-background:accumulate" inkscape:connector-curvature="0" sodipodi:nodetypes="csssssssssssssssssssssssc"/>
    <path id="path3937-1-15-4-2" title="sin(x)" d="m 490.69972,108.06191 c 0.33873,4.16165 0.98399,7.5775 1.32272,11.70358 0.33873,4.12608 0.67746,8.21639 1.01619,12.2363 0.33872,4.01992 0.67745,7.96897 1.01618,11.81393 0.33873,3.84497 0.67746,7.58519 1.01618,11.18942 0.33873,3.60423 0.67746,7.07162 1.01619,10.37344 0.33873,3.30182 0.67745,6.43705 1.01618,9.37998 0.33873,2.94292 0.67746,5.69235 1.01619,8.22601 0.33872,2.53367 0.67745,4.85026 1.01618,6.93132 0.33873,2.08106 0.67746,3.92516 1.01619,5.518 0.33872,1.59285 0.67745,2.93292 1.01618,4.01029 0.33872,1.07738 0.67745,1.89048 1.01618,2.43396 0.33873,0.54347 0.67746,0.8157 1.01618,0.81597 0.33873,2.7e-4 0.67746,-0.27304 1.01619,-0.81597 0.33873,-0.54294 0.67746,-1.35711 1.01618,-2.43396 0.33873,-1.07685 0.67746,-2.41794 1.01619,-4.01029 0.33873,-1.59234 0.67745,-3.43742 1.01618,-5.518 0.33873,-2.08059 0.67746,-4.39808 1.01619,-6.93132 0.33872,-2.53323 0.67745,-5.28348 1.01618,-8.22601 0.33873,-2.94254 0.67746,-6.07849 1.01618,-9.37998 0.33873,-3.30149 0.67746,-6.76949 1.01619,-10.37344 0.33873,-3.60396 0.67745,-7.34466 1.01618,-11.18942 0.33873,-3.84475 0.67746,-7.79415 1.01619,-11.81393 0.33873,-4.01977 0.67745,-8.11029 1.01618,-12.2363 0.33873,-4.12601 0.9825,-7.54193 1.32123,-11.70358" style="color:#000000;fill:#ff2828;fill-opacity:1;stroke:#000000;stroke-width:1.39944589;stroke-linecap:butt;stroke-linejoin:miter;stroke-miterlimit:4;stroke-opacity:1;stroke-dasharray:none;stroke-dashoffset:0;marker:none;visibility:visible;display:inline;overflow:visible;enable-background:accumulate" inkscape:connector-curvature="0" sodipodi:nodetypes="csssssssssssssssssssssssc"/>
  </g>
  <g id="g4266" inkscape:groupmode="layer" inkscape:label="White mask" style="display:inline" sodipodi:insensitive="true">
    <g id="g3937" transform="translate(-23.399999999999686, 0.0 )" visibility="hidden">
      <rect y="11.073883" x="15" height="96.2883" width="25" id="rect4164" style="color:#000000;fill:#ffffff;fill-opacity:1;stroke:none;stroke-width:6.17629099;marker:none;visibility:visible;display:inline;overflow:visible;enable-background:accumulate"/>
      <rect y="107.36218" x="40" height="96.370438" width="25.201799" id="rect4164-1" style="color:#000000;fill:#ffffff;fill-opacity:1;stroke:none;stroke-width:6.17629099;marker:none;visibility:visible;display:inline;overflow:visible;enable-background:accumulate"/>
      <rect y="10.962891" x="65" height="96.399292" width="25.099632" id="rect4164-4" style="color:#000000;fill:#ffffff;fill-opacity:1;stroke:none;stroke-width:6.17629099;marker:none;visibility:visible;display:inline;overflow:visible;enable-background:accumulate"/>
      <rect y="107.36218" x="90" height="96.2883" width="25" id="rect4164-2" style="color:#000000;fill:#ffffff;fill-opacity:1;stroke:none;stroke-width:6.17629099;marker:none;visibility:visible;display:inline;overflow:visible;enable-background:accumulate"/>
      <rect y="11.073883" x="115" height="96.2883" width="25" id="rect4164-3" style="color:#000000;fill:#ffffff;fill-opacity:1;stroke:none;stroke-width:6.17629099;marker:none;visibility:visible;display:inline;overflow:visible;enable-background:accumulate"/>
      <rect y="107.36218" x="140" height="96.2883" width="25" id="rect4164-22" style="color:#000000;fill:#ffffff;fill-opacity:1;stroke:none;stroke-width:6.17629099;marker:none;visibility:visible;display:inline;overflow:visible;enable-background:accumulate"/>
      <rect y="11.073883" x="165" height="96.2883" width="25" id="rect4164-16" style="color:#000000;fill:#ffffff;fill-opacity:1;stroke:none;stroke-width:6.17629099;marker:none;visibility:visible;display:inline;overflow:visible;enable-background:accumulate"/>
      <rect y="107.36218" x="190" height="96.2883" width="25" id="rect4164-8" style="color:#000000;fill:#ffffff;fill-opacity:1;stroke:none;stroke-width:6.17629099;marker:none;visibility:visible;display:inline;overflow:visible;enable-background:accumulate"/>
      <rect y="11.073883" x="215" height="96.2883" width="25" id="rect4164-5" style="color:#000000;fill:#ffffff;fill-opacity:1;stroke:none;stroke-width:6.17629099;marker:none;visibility:visible;display:inline;overflow:visible;enable-background:accumulate"/>
      <rect y="107.36218" x="240" height="96.2883" width="25" id="rect4164-7" style="color:#000000;fill:#ffffff;fill-opacity:1;stroke:none;stroke-width:6.17629099;marker:none;visibility:visible;display:inline;overflow:visible;enable-background:accumulate"/>
      <rect y="11.073883" x="265" height="96.2883" width="25" id="rect4164-6" style="color:#000000;fill:#ffffff;fill-opacity:1;stroke:none;stroke-width:6.17629099;marker:none;visibility:visible;display:inline;overflow:visible;enable-background:accumulate"/>
      <rect y="107.36218" x="290" height="96.2883" width="25" id="rect4164-18" style="color:#000000;fill:#ffffff;fill-opacity:1;stroke:none;stroke-width:6.17629099;marker:none;visibility:visible;display:inline;overflow:visible;enable-background:accumulate"/>
      <rect y="11.073883" x="315" height="96.2883" width="25" id="rect4164-9" style="color:#000000;fill:#ffffff;fill-opacity:1;stroke:none;stroke-width:6.17629099;marker:none;visibility:visible;display:inline;overflow:visible;enable-background:accumulate"/>
      <rect y="107.36218" x="340" height="96.2883" width="25" id="rect4164-27" style="color:#000000;fill:#ffffff;fill-opacity:1;stroke:none;stroke-width:6.17629099;marker:none;visibility:visible;display:inline;overflow:visible;enable-background:accumulate"/>
      <rect y="11.073883" x="365" height="96.2883" width="25" id="rect4164-95" style="color:#000000;fill:#ffffff;fill-opacity:1;stroke:none;stroke-width:6.17629099;marker:none;visibility:visible;display:inline;overflow:visible;enable-background:accumulate"/>
      <rect y="107.36218" x="390" height="96.2883" width="25" id="rect4164-18-9" style="color:#000000;fill:#ffffff;fill-opacity:1;stroke:none;stroke-width:6.17629099;marker:none;visibility:visible;display:inline;overflow:visible;enable-background:accumulate"/>
      <rect y="11.073883" x="415" height="96.2883" width="25" id="rect4164-9-4" style="color:#000000;fill:#ffffff;fill-opacity:1;stroke:none;stroke-width:6.17629099;marker:none;visibility:visible;display:inline;overflow:visible;enable-background:accumulate"/>
      <rect y="107.36218" x="440" height="96.2883" width="25" id="rect4164-27-8" style="color:#000000;fill:#ffffff;fill-opacity:1;stroke:none;stroke-width:6.17629099;marker:none;visibility:visible;display:inline;overflow:visible;enable-background:accumulate"/>
      <rect y="11.073883" x="465" height="96.2883" width="25" id="rect4164-95-8" style="color:#000000;fill:#ffffff;fill-opacity:1;stroke:none;stroke-width:6.17629099;marker:none;visibility:visible;display:inline;overflow:visible;enable-background:accumulate"/>
      <rect y="107.36218" x="490" height="96.2883" width="25" id="rect4164-27-8-4" style="color:#000000;fill:#ffffff;fill-opacity:1;stroke:none;stroke-width:6.17629099;marker:none;visibility:visible;display:inline;overflow:visible;enable-background:accumulate"/>
    </g>
  </g>
  <g inkscape:label="Axes" id="layer2" inkscape:groupmode="layer" style="display:inline" sodipodi:insensitive="true">
    <path inkscape:connector-curvature="0" id="rect4769" d="m 50,102.36218 500,0 0,200 -500,0 z" style="color:#000000;fill:none;stroke:none;stroke-width:6.17629099;marker:none;visibility:visible;display:inline;overflow:visible;enable-background:accumulate"/>
    <text sodipodi:linespacing="125%" id="text3021" y="52.587818" x="529.27881" style="font-size:14.2851963px;line-height:125%;letter-spacing:0px;word-spacing:0px;color:#000000;fill:#000000;fill-opacity:1;fill-rule:nonzero;stroke:none;stroke-width:1px;marker:none;visibility:visible;display:inline;overflow:visible;enable-background:accumulate" xml:space="preserve"><tspan style="font-size:14.2851963px;font-style:normal;font-variant:normal;font-weight:normal;font-stretch:normal;text-align:start;line-height:125%;writing-mode:lr-tb;text-anchor:start;font-family:Arial;-inkscape-font-specification:Arial" y="52.587818" x="529.27881" id="tspan3023" sodipodi:role="line">Power</tspan><tspan style="font-size:14.2851963px;font-style:normal;font-variant:normal;font-weight:normal;font-stretch:normal;text-align:start;line-height:125%;writing-mode:lr-tb;text-anchor:start;font-family:Arial;-inkscape-font-specification:Arial" id="tspan3025" y="70.444313" x="529.27881" sodipodi:role="line">100%</tspan></text>
    <path style="color:#000000;fill:#ff2828;fill-opacity:1;stroke:#000000;stroke-width:1.39944589;stroke-linecap:butt;stroke-linejoin:miter;stroke-miterlimit:4;stroke-opacity:1;stroke-dasharray:none;stroke-dashoffset:0;marker:none;visibility:visible;display:inline;overflow:visible;enable-background:accumulate" d="m 15.015085,202.2798 0,-189.999994" id="path4097" inkscape:connector-curvature="0" sodipodi:nodetypes="cc"/>
    <path style="color:#000000;fill:#ff2828;fill-opacity:1;stroke:#000000;stroke-width:1.39944589;stroke-linecap:butt;stroke-linejoin:miter;stroke-miterlimit:4;stroke-opacity:1;stroke-dasharray:none;stroke-dashoffset:0;marker:none;visibility:visible;display:inline;overflow:visible;enable-background:accumulate" d="M 530,107.36218 15.015085,107.27983" id="path4097-6" inkscape:connector-curvature="0" sodipodi:nodetypes="cc"/>
  </g>
</svg>