<?xml version="1.0" encoding="UTF-8" standalone="no"?>
<svg xmlns:dc="http://purl.org/dc/elements/1.1/" xmlns:cc="http://creativecommons.org/ns#" xmlns:rdf="http://www.w3.org/1999/02/22-rdf-syntax-ns#" xmlns:svg="http://www.w3.org/2000/svg" xmlns="http://www.w3.org/2000/svg" xmlns:sodipodi="http://sodipodi.sourceforge.net/DTD/sodipodi-0.dtd" xmlns:inkscape="http://www.inkscape.org/namespaces/inkscape" version="1.1" onload="Start(evt)" width="550" height="250" id="svg2" inkscape:version="0.48.2 r9819" sodipodi:docname="Phasors.svg">
  <metadata id="metadata33">
    <rdf:RDF>
      <cc:Work rdf:about="">
        <dc:format>image/svg+xml</dc:format>
        <dc:type rdf:resource="http://purl.org/dc/dcmitype/StillImage"/>
      </cc:Work>
    </rdf:RDF>
  </metadata>
  <sodipodi:namedview pagecolor="#ffffff" bordercolor="#666666" borderopacity="1" objecttolerance="10" gridtolerance="10" guidetolerance="10" inkscape:pageopacity="0" inkscape:pageshadow="2" inkscape:window-width="1022" inkscape:window-height="712" id="namedview31" showgrid="true" showguides="true" inkscape:guide-bbox="true" inkscape:zoom="1.1813271" inkscape:cx="287.17399" inkscape:cy="107.32771" inkscape:window-x="-2" inkscape:window-y="-4" inkscape:window-maximized="1" inkscape:current-layer="svg2" inkscape:snap-grids="true">
    <sodipodi:guide orientation="0,1" position="202.73642,125.03953" id="guide3010"/>
    <sodipodi:guide orientation="1,0" position="469.93083,59.868587" id="guide3012"/>
    <inkscape:grid type="xygrid" id="grid3017" empspacing="5" visible="true" enabled="true" snapvisiblegridlinesonly="true"/>
  </sodipodi:namedview>
  <script type="text/ecmascript" id="script4">

    var time = 0;
    var delta_time = 0.25;
    var max_time = 720.0;
    var dir = 1;

    var phasor;

    function Start(evt) {

      phasor = evt.target.ownerDocument.getElementById("Phasors");
	  cursor = evt.target.ownerDocument.getElementById("Cursor");
      Rotate();
    }

    function Rotate() {

      time = time + delta_time;
      if (time &gt;  max_time)  time = 0;
	
      angle = (time * 720.0) / max_time;
	  x_pos = (time * 250.0) / max_time;
	  phasor.setAttribute("transform", "rotate(" + (-angle) + " 100 125)");
	  cursor.setAttribute("transform",  "translate(" +x_pos+ ", 0.0 )");

      // Repeat
      setTimeout("Rotate()", delta_time)
    }

    window.Rotate = Rotate

   </script>
  <defs id="defs5769">
    <marker refX="0" refY="0" orient="auto" id="Arrow1Mend" style="overflow:visible">
      <path d="M 0,0 5,-5 -12.5,0 5,5 0,0 z" transform="matrix(-0.4,0,0,-0.4,-4,0)" id="path4582" style="fill-rule:evenodd;stroke:#000000;stroke-width:1pt;marker-start:none"/>
    </marker>
    <marker refX="0" refY="0" orient="auto" id="Arrow1Lend" style="overflow:visible">
      <path d="M 0,0 5,-5 -12.5,0 5,5 0,0 z" transform="matrix(-0.8,0,0,-0.8,-10,0)" id="path4576" style="fill-rule:evenodd;stroke:#000000;stroke-width:1pt;marker-start:none"/>
    </marker>
    <marker refX="0" refY="0" orient="auto" id="Arrow1Mend-6" style="overflow:visible">
      <path d="M 0,0 5,-5 -12.5,0 5,5 0,0 z" transform="matrix(-0.4,0,0,-0.4,-4,0)" id="path4582-6" style="fill-rule:evenodd;stroke:#000000;stroke-width:1pt;marker-start:none"/>
    </marker>
    <marker refX="0" refY="0" orient="auto" id="Arrow1Mend-8" style="overflow:visible">
      <path d="M 0,0 5,-5 -12.5,0 5,5 0,0 z" transform="matrix(-0.4,0,0,-0.4,-4,0)" id="path4582-4" style="fill-rule:evenodd;stroke:#000000;stroke-width:1pt;marker-start:none"/>
    </marker>
    <marker refX="0" refY="0" orient="auto" id="Arrow1MendU" style="overflow:visible">
      <path d="M 0,0 5,-5 -12.5,0 5,5 0,0 z" transform="matrix(-0.4,0,0,-0.4,-4,0)" id="path6709" style="fill:#ffb100;fill-rule:evenodd;stroke:#ffb100;stroke-width:2pt;marker-start:none"/>
    </marker>
    <marker refX="0" refY="0" orient="auto" id="Arrow1MendC" style="overflow:visible">
      <path d="M 0,0 5,-5 -12.5,0 5,5 0,0 z" transform="matrix(-0.4,0,0,-0.4,-4,0)" id="path6756" style="fill:#0000ff;fill-rule:evenodd;stroke:#0000ff;stroke-width:2pt;marker-start:none"/>
    </marker>
    <marker refX="0" refY="0" orient="auto" id="Arrow1Mend5" style="overflow:visible">
      <path d="M 0,0 5,-5 -12.5,0 5,5 0,0 z" transform="matrix(-0.4,0,0,-0.4,-4,0)" id="path6803" style="fill:#fc0000;fill-rule:evenodd;stroke:#fc0000;stroke-width:2pt;marker-start:none"/>
    </marker>
  </defs>
  <rect style="color:#000000;fill:#ffffff;fill-opacity:1;stroke:none;stroke-width:1.25000000000000000;stroke-linecap:butt;stroke-linejoin:miter;stroke-miterlimit:4;stroke-opacity:1;stroke-dasharray:none;stroke-dashoffset:0;marker:none;visibility:visible;display:inline;overflow:visible;enable-background:accumulate" id="rect3005" width="500" height="250" x="0.56566191" y="1.4101796" ry="0"/>
  <path style="color:#000000;fill:none;stroke:#000000;stroke-width:0.74299997;stroke-linecap:butt;stroke-linejoin:miter;stroke-miterlimit:4;stroke-opacity:1;stroke-dasharray:none;stroke-dashoffset:0;marker:none;visibility:visible;display:inline;overflow:visible;enable-background:accumulate" d="m 9.8502215,125.08945 179.9999985,0" id="path4527-8" inkscape:connector-curvature="0" sodipodi:nodetypes="cc"/>
  <path style="color:#000000;fill:none;stroke:#000000;stroke-width:0.74299997;stroke-linecap:butt;stroke-linejoin:miter;stroke-miterlimit:4;stroke-opacity:1;stroke-dasharray:none;stroke-dashoffset:0;marker:none;visibility:visible;display:inline;overflow:visible;enable-background:accumulate" d="m 99.850222,35.089448 0,180.000002" id="path4527" inkscape:connector-curvature="0" sodipodi:nodetypes="cc"/>
  <g id="Phasors" transform="rotate(-388 100 125)">
    <g transform="translate(0,-812.36218)" id="layer1">
      <path d="m 100,125 75,0" transform="translate(0,812.36218)" id="path5783" style="color:#000000;fill:none;stroke:#ff0000;stroke-width:1.75;stroke-linecap:butt;stroke-linejoin:miter;stroke-miterlimit:4;stroke-opacity:1;stroke-dasharray:none;stroke-dashoffset:0;marker:none;marker-end:url(#Arrow1Mend5);visibility:visible;display:inline;overflow:visible;enable-background:accumulate"/>
      <path d="M 100,937.36218 62.5,872.41028" id="path5783-1" style="color:#000000;fill:none;stroke:#0000ff;stroke-width:1.75;stroke-linecap:butt;stroke-linejoin:miter;stroke-miterlimit:4;stroke-opacity:1;stroke-dasharray:none;stroke-dashoffset:0;marker:none;marker-end:url(#Arrow1MendC);visibility:visible;display:inline;overflow:visible;enable-background:accumulate"/>
      <path d="M 100,937.36218 62.5,1002.3141" id="path5783-9" style="color:#000000;fill:none;stroke:#ffb100;stroke-width:2.00;stroke-linecap:butt;stroke-linejoin:miter;stroke-miterlimit:4;stroke-opacity:1;stroke-dasharray:none;stroke-dashoffset:0;marker:none;marker-end:url(#Arrow1MendU);visibility:visible;display:inline;overflow:visible;enable-background:accumulate"/>
    </g>
  </g>
  <rect style="color:#000000;fill:#7d7d7d;fill-opacity:1;stroke:none;stroke-width:1.75;marker:none;visibility:visible;display:inline;overflow:visible;enable-background:accumulate" id="Cursor" width="3" height="170" x="220" y="35" transform="translate(134.72222222222223, 0.0 )"/>
  <path id="path7362" title="sin(x)" d="m 220,125 c 1.70068,-6.41141 3.40136,-12.82216 5.10204,-19.02409 1.70068,-6.20196 3.40136,-12.19296 5.10204,-17.77975 1.70068,-5.58678 3.40136,-10.76617 5.10204,-15.372371 1.70068,-4.606207 3.40136,-8.635184 5.10204,-11.959516 1.70068,-3.324332 3.40136,-5.93937 5.10204,-7.764382 1.70068,-1.825012 3.40136,-2.85506 5.10204,-3.061377 1.70069,-0.206318 3.40137,0.416 5.10205,1.841873 1.70068,1.425872 3.40136,3.65985 5.10204,6.624645 1.70068,2.964795 3.40136,6.664308 5.10204,10.974098 1.70068,4.309791 3.40136,9.23285 5.10204,14.60573 1.70068,5.37288 3.40136,11.19747 5.10204,17.28202 1.70068,6.08453 3.40136,12.42967 5.10204,18.82785 1.70068,6.39819 3.40136,12.84883 5.10204,19.14217 1.70068,6.29334 3.40136,12.42754 5.10204,18.20438 1.70068,5.77684 3.40136,11.19337 5.10204,16.07585 1.70068,4.88248 3.40136,9.22704 5.10204,12.89579 1.70068,3.66875 3.40136,6.65716 5.10204,8.87221 1.70068,2.21505 3.40136,3.65184 5.10204,4.2683 1.70068,0.61647 3.40137,0.40765 5.10205,-0.6148 1.70068,-1.02245 3.40136,-2.8632 5.10204,-5.45768 1.70068,-2.59448 3.40136,-5.94678 5.10204,-9.94359 1.70068,-3.99681 3.40136,-8.64137 5.10204,-13.77907 1.70068,-5.1377 3.40136,-10.77073 5.10204,-16.71326 1.70068,-5.94254 3.40136,-12.19557 5.10204,-18.55424 1.70068,-6.35867 3.40136,-12.8227 5.10204,-19.18158 1.70068,-6.35888 3.40136,-12.61108 5.10204,-18.55426 1.70068,-5.94315 3.40136,-11.57457 5.10204,-16.71326 1.70068,-5.13869 3.40136,-9.780977 5.10204,-13.779071 1.70068,-3.998094 3.40136,-7.347601 5.10204,-9.943586 1.70068,-2.595985 3.40136,-4.433614 5.10204,-5.457687 1.70068,-1.024072 3.40137,-1.229624 5.10205,-0.614799 1.70068,0.614825 3.40136,2.054795 5.10204,4.268301 1.70068,2.213507 3.40136,5.204811 5.10204,8.872213 1.70068,3.667402 3.40136,8.014377 5.10204,12.895789 1.70068,4.88141 3.40136,10.29972 5.10204,16.07585 1.70068,5.77613 3.40136,11.91138 5.10204,18.2044 1.70068,6.29303 3.40136,12.74387 5.10204,19.14217 1.70068,6.39829 3.40136,12.7428 5.10204,18.82785 1.70068,6.08504 3.40136,11.90822 5.10204,17.282 1.70068,5.37378 3.40136,10.29472 5.10204,14.60573 1.70068,4.31101 3.40136,8.00784 5.10204,10.9741 1.70068,2.96625 3.40136,5.19717 5.10204,6.62464 1.70068,1.42748 3.40136,2.04655 5.10205,1.84188 1.70068,-0.20468 3.40136,-1.23795 5.10204,-3.06138 1.70068,-1.82344 3.40136,-4.44146 5.10204,-7.76438 1.70068,-3.32293 3.40136,-7.35446 5.10204,-11.95952 1.70068,-4.60506 3.40136,-9.78639 5.10204,-15.37237 1.70068,-5.58598 3.57825,-12.24092 5.27893,-18.44244 l 4.85598,-18.40091" style="color:#000000;fill:none;stroke:#ff0000;stroke-width:1.75;stroke-linecap:butt;stroke-linejoin:miter;stroke-miterlimit:4;stroke-opacity:1;stroke-dasharray:none;stroke-dashoffset:0;marker:none;visibility:visible;display:inline;overflow:visible;enable-background:accumulate" inkscape:connector-curvature="0" sodipodi:nodetypes="cssssssssssssssssssssssssssssssssssssssssssssssscc"/>
  <path style="color:#000000;fill:none;stroke:#0000ff;stroke-width:1.75;stroke-linecap:butt;stroke-linejoin:miter;stroke-miterlimit:4;stroke-opacity:1;stroke-dasharray:none;stroke-dashoffset:0;marker:none;visibility:visible;display:inline;overflow:visible;enable-background:accumulate" d="m 220,60.9195 c 1.70068,3.332108 3.40136,7.369395 5.10204,11.980782 1.70068,4.611388 3.40136,9.798198 5.10204,15.388638 1.70068,5.59044 3.40136,11.5861 5.10204,17.78994 1.70068,6.20382 3.40136,12.61614 5.10204,19.02755 1.70068,6.41141 3.40136,12.82097 5.10204,19.0206 1.70068,6.19962 3.40136,12.18717 5.10204,17.76949 1.70069,5.58232 3.40137,10.75621 5.10205,15.35608 1.70068,4.59987 3.40136,8.62168 5.10204,11.93823 1.70068,3.31655 3.40136,5.92319 5.10204,7.73948 1.70068,1.81629 3.40136,2.83729 5.10204,3.03451 1.70068,0.19723 3.40136,-0.43422 5.10204,-1.86896 1.70068,-1.43474 3.40136,-3.67732 5.10204,-6.65018 1.70068,-2.97286 3.40136,-6.67989 5.10204,-10.99641 1.70068,-4.31652 3.40136,-9.24552 5.10204,-14.62336 1.70068,-5.37784 3.40136,-11.2064 5.10204,-17.29379 1.70068,-6.08739 3.40136,-12.43427 5.10204,-18.83303 1.70068,-6.39877 3.40136,-12.84881 5.10204,-19.1404 1.70068,-6.2916 3.40136,-12.42292 5.10204,-18.19581 1.70068,-5.77289 3.40137,-11.18441 5.10205,-16.06099 1.70068,-4.876575 3.40136,-9.21434 5.10204,-12.875627 1.70068,-3.661287 3.40136,-6.641564 5.10204,-8.848075 1.70068,-2.206511 3.40136,-3.634358 5.10204,-4.241764 1.70068,-0.607407 3.40136,-0.389428 5.10204,0.642 1.70068,1.031429 3.40136,2.880974 5.10204,5.483772 1.70068,2.602798 3.40136,5.962932 5.10204,9.966849 1.70068,4.003917 3.40136,8.654855 5.10204,13.797995 1.70068,5.14313 3.40136,10.78065 5.10204,16.7266 1.70068,5.94596 3.40136,12.20131 5.10204,18.56114 1.70068,6.35983 3.40136,12.82384 5.10204,19.18156 1.70068,6.35771 3.40136,12.60758 5.10204,18.54731 1.70068,5.93974 3.40137,11.56665 5.10205,16.69989 1.70068,5.13325 3.40136,9.76915 5.10204,13.76013 1.70068,3.99098 3.40136,7.33264 5.10204,9.9203 1.70068,2.58767 3.40136,4.4165 5.10204,5.43159 1.70068,1.01509 3.40136,1.21148 5.10204,0.5876 1.70068,-0.62388 3.40136,-2.07279 5.10204,-4.29483 1.70068,-2.22204 3.40136,-5.22147 5.10204,-8.89633 1.70068,-3.67486 3.40136,-8.02862 5.10204,-12.91593 1.70068,-4.8873 3.40136,-10.31061 5.10204,-16.09068 1.70068,-5.78007 3.40136,-11.91818 5.10204,-18.21294 1.70068,-6.29476 3.40136,-12.74618 5.10204,-19.14388 1.70068,-6.39771 3.40136,-12.74046 5.10204,-18.82263 1.70068,-6.0822 3.40136,-11.90139 5.10205,-17.2702 1.70068,-5.36881 3.40136,-10.283805 5.10204,-14.588075 1.70068,-4.30427 3.40136,-7.99358 5.10204,-10.951766 1.70068,-2.958185 3.40136,-5.180492 5.10204,-6.599098 1.70068,-1.418605 3.40136,-2.028547 5.10204,-1.814781 1.70068,0.213766 3.40136,1.256085 5.10204,3.088241 1.70068,1.832155 3.40136,4.458557 5.10204,7.789259" title="sin(x-4.166)" id="path7622"/>
  <path id="path7701" title="sin(x-2.0833)" d="m 220,190.36397 c 1.70068,3.14318 3.40136,5.56639 5.10204,7.19093 1.70068,1.62454 3.40136,2.4469 5.10204,2.44509 1.70068,-0.002 3.40136,-0.83264 5.10204,-2.46067 1.70068,-1.62803 3.40136,-4.05773 5.10204,-7.20549 1.70068,-3.14776 3.40136,-7.01739 5.10204,-11.47899 1.70068,-4.46161 3.40136,-9.51805 5.10204,-15.00166 1.70069,-5.48361 3.40137,-11.39612 5.10205,-17.54305 1.70068,-6.14693 3.40136,-12.52878 5.10204,-18.93695 1.70068,-6.40818 3.40136,-12.84192 5.10204,-19.09218 1.70068,-6.25027 3.40136,-12.31509 5.10204,-17.99861 1.70068,-5.68352 3.40136,-10.98269 5.10204,-15.727704 1.70068,-4.745016 3.40136,-8.931921 5.10204,-12.42806 1.70068,-3.496139 3.40136,-6.296919 5.10204,-8.315497 1.70068,-2.018578 3.40136,-3.250033 5.10204,-3.659015 1.70068,-0.408981 3.40136,0.0094 5.10204,1.236805 1.70068,1.227367 3.40136,3.268292 5.10204,6.051724 1.70068,2.783433 3.40136,6.313367 5.10204,10.470799 1.70068,4.157433 3.40136,8.945478 5.10204,14.204978 1.70068,5.25949 3.40137,10.99247 5.10205,17.01 1.70068,6.01755 3.40136,12.32046 5.10204,18.70242 1.70068,6.38196 3.40136,12.84252 5.10204,19.17146 1.70068,6.32895 3.40136,12.52458 5.10204,18.38653 1.70068,5.86194 3.40136,11.38739 5.10204,16.39891 1.70068,5.01152 3.40136,9.50535 5.10204,13.33864 1.70068,3.83329 3.40136,7.00157 5.10204,9.40589 1.70068,2.40432 3.40136,4.03982 5.10204,4.8579 1.70068,0.81809 3.40136,0.81381 5.10204,-0.008 1.70068,-0.82166 3.40136,-2.46543 5.10204,-4.87309 1.70068,-2.40766 3.40136,-5.5834 5.10204,-9.41958 1.70068,-3.83618 3.40136,-8.33616 5.10204,-13.34993 1.70068,-5.01376 3.40137,-10.54364 5.10205,-16.40705 1.70068,-5.86341 3.40136,-12.06147 5.10204,-18.39099 1.70068,-6.32952 3.40136,-12.79036 5.10204,-19.17197 1.70068,-6.38161 3.40136,-12.68262 5.10204,-18.69892 1.70068,-6.01629 3.40136,-11.74531 5.10204,-17.00274 1.70068,-5.25743 3.40136,-10.039729 5.10204,-14.194417 1.70068,-4.154687 3.40136,-7.677452 5.10204,-10.457635 1.70068,-2.780184 3.40136,-4.812991 5.10204,-6.036818 1.70068,-1.223828 3.40136,-1.633711 5.10204,-1.221131 1.70068,0.41258 3.40136,1.652432 5.10204,3.674432 1.70068,2.022 3.40136,4.830487 5.10204,8.329648 1.70068,3.49916 3.40136,7.692579 5.10204,12.440019 1.70068,4.747442 3.40136,10.051502 5.10205,15.736692 1.70068,5.68518 3.40136,11.75296 5.10204,18.00403 1.70068,6.25106 3.40136,12.68563 5.10204,19.09369 1.70068,6.40806 3.40136,12.78854 5.10204,18.93444 1.70068,6.14591 3.40136,12.05496 5.10204,17.5367 1.70068,5.48174 3.40136,10.53285 5.10204,14.99186 1.70068,4.45901 3.40136,8.32178 5.10204,11.46641" style="color:#000000;fill:none;stroke:#ffb100;stroke-width:2.0;stroke-linecap:butt;stroke-linejoin:miter;stroke-miterlimit:4;stroke-opacity:1;stroke-dasharray:none;stroke-dashoffset:0;marker:none;visibility:visible;display:inline;overflow:visible;enable-background:accumulate"/>
  <rect style="color:#000000;fill:none;stroke:#c1c1c1;stroke-width:7.1500001;stroke-miterlimit:4;stroke-opacity:1;stroke-dasharray:none;marker:none;visibility:visible;display:inline;overflow:visible;enable-background:accumulate" id="framer" width="260" height="200" x="215" y="25" ry="20"/>
</svg>