<?xml version="1.0" encoding="UTF-8"?>
<!DOCTYPE svg PUBLIC "-//W3C//DTD SVG 1.1//EN" "http://www.w3.org/Graphics/SVG/1.1/DTD/svg11.dtd">
<svg width="149mm" height="98mm" viewBox="0 0 14900 9800" version="1.1" xmlns="http://www.w3.org/2000/svg" stroke-width="28.222" stroke-linejoin="round" xml:space="preserve">
 <path fill="rgb(255,255,255)" stroke="none" d="M 7477,9815 L 35,9815 35,-18 14919,-18 14919,9815 7477,9815 Z"/>
 <path fill="none" stroke="rgb(179,179,179)" stroke-linejoin="round" d="M 5391,7991 L 2255,7991 2255,2367 8526,2367 8526,7991 5391,7991 Z"/>
 <path fill="none" stroke="rgb(179,179,179)" stroke-linejoin="round" d="M 8526,7989 L 2255,7989"/>
 <path fill="none" stroke="rgb(179,179,179)" stroke-linejoin="round" d="M 8526,6865 L 2255,6865"/>
 <path fill="none" stroke="rgb(179,179,179)" stroke-linejoin="round" d="M 8526,5740 L 2255,5740"/>
 <path fill="none" stroke="rgb(179,179,179)" stroke-linejoin="round" d="M 8526,4616 L 2255,4616"/>
 <path fill="none" stroke="rgb(179,179,179)" stroke-linejoin="round" d="M 8526,3491 L 2255,3491"/>
 <path fill="none" stroke="rgb(179,179,179)" stroke-linejoin="round" d="M 8526,2366 L 2255,2366"/>
 <path fill="none" stroke="rgb(179,179,179)" stroke-linejoin="round" d="M 2254,8139 L 2254,7989"/>
 <path fill="none" stroke="rgb(179,179,179)" stroke-linejoin="round" d="M 2254,8139 L 2254,7989"/>
 <path fill="none" stroke="rgb(179,179,179)" stroke-linejoin="round" d="M 3470,8139 L 3470,7989"/>
 <path fill="none" stroke="rgb(179,179,179)" stroke-linejoin="round" d="M 3470,8139 L 3470,7989"/>
 <path fill="none" stroke="rgb(179,179,179)" stroke-linejoin="round" d="M 4686,8139 L 4686,7989"/>
 <path fill="none" stroke="rgb(179,179,179)" stroke-linejoin="round" d="M 4686,8139 L 4686,7989"/>
 <path fill="none" stroke="rgb(179,179,179)" stroke-linejoin="round" d="M 5902,8139 L 5902,7989"/>
 <path fill="none" stroke="rgb(179,179,179)" stroke-linejoin="round" d="M 5902,8139 L 5902,7989"/>
 <path fill="none" stroke="rgb(179,179,179)" stroke-linejoin="round" d="M 7118,8139 L 7118,7989"/>
 <path fill="none" stroke="rgb(179,179,179)" stroke-linejoin="round" d="M 7118,8139 L 7118,7989"/>
 <path fill="none" stroke="rgb(179,179,179)" stroke-linejoin="round" d="M 8333,8139 L 8333,7989"/>
 <path fill="none" stroke="rgb(179,179,179)" stroke-linejoin="round" d="M 8333,8139 L 8333,7989"/>
 <path fill="none" stroke="rgb(179,179,179)" stroke-linejoin="round" d="M 2255,7989 L 8526,7989"/>
 <path fill="none" stroke="rgb(179,179,179)" stroke-linejoin="round" d="M 2105,7989 L 2255,7989"/>
 <path fill="none" stroke="rgb(179,179,179)" stroke-linejoin="round" d="M 2105,7989 L 2255,7989"/>
 <path fill="none" stroke="rgb(179,179,179)" stroke-linejoin="round" d="M 2105,6865 L 2255,6865"/>
 <path fill="none" stroke="rgb(179,179,179)" stroke-linejoin="round" d="M 2105,6865 L 2255,6865"/>
 <path fill="none" stroke="rgb(179,179,179)" stroke-linejoin="round" d="M 2105,5740 L 2255,5740"/>
 <path fill="none" stroke="rgb(179,179,179)" stroke-linejoin="round" d="M 2105,5740 L 2255,5740"/>
 <path fill="none" stroke="rgb(179,179,179)" stroke-linejoin="round" d="M 2105,4616 L 2255,4616"/>
 <path fill="none" stroke="rgb(179,179,179)" stroke-linejoin="round" d="M 2105,4616 L 2255,4616"/>
 <path fill="none" stroke="rgb(179,179,179)" stroke-linejoin="round" d="M 2105,3491 L 2255,3491"/>
 <path fill="none" stroke="rgb(179,179,179)" stroke-linejoin="round" d="M 2105,3491 L 2255,3491"/>
 <path fill="none" stroke="rgb(179,179,179)" stroke-linejoin="round" d="M 2105,2366 L 2255,2366"/>
 <path fill="none" stroke="rgb(179,179,179)" stroke-linejoin="round" d="M 2105,2366 L 2255,2366"/>
 <path fill="none" stroke="rgb(179,179,179)" stroke-linejoin="round" d="M 2255,7989 L 2255,2365"/>
 <path fill="none" stroke="rgb(255,66,14)" stroke-width="20" stroke-linejoin="round" d="M 2738,7449 L 3470,6771 3899,6375 4202,6094 5170,5199 5902,4522 6634,3845 7062,3449 7366,3168 7601,2950 7793,2772 7956,2621 8097,2490"/>
 <path fill="rgb(255,66,14)" stroke="none" d="M 2638,7449 L 2738,7549 2838,7449 2738,7349 2638,7449 Z"/>
 <path fill="none" stroke="rgb(255,66,14)" stroke-linejoin="round" d="M 2638,7449 L 2738,7549 2838,7449 2738,7349 2638,7449 Z"/>
 <path fill="rgb(255,66,14)" stroke="none" d="M 3370,6771 L 3470,6871 3570,6771 3470,6671 3370,6771 Z"/>
 <path fill="none" stroke="rgb(255,66,14)" stroke-linejoin="round" d="M 3370,6771 L 3470,6871 3570,6771 3470,6671 3370,6771 Z"/>
 <path fill="rgb(255,66,14)" stroke="none" d="M 3799,6375 L 3899,6475 3999,6375 3899,6275 3799,6375 Z"/>
 <path fill="none" stroke="rgb(255,66,14)" stroke-linejoin="round" d="M 3799,6375 L 3899,6475 3999,6375 3899,6275 3799,6375 Z"/>
 <path fill="rgb(255,66,14)" stroke="none" d="M 4102,6094 L 4202,6194 4302,6094 4202,5994 4102,6094 Z"/>
 <path fill="none" stroke="rgb(255,66,14)" stroke-linejoin="round" d="M 4102,6094 L 4202,6194 4302,6094 4202,5994 4102,6094 Z"/>
 <path fill="rgb(255,66,14)" stroke="none" d="M 5070,5199 L 5170,5299 5270,5199 5170,5099 5070,5199 Z"/>
 <path fill="none" stroke="rgb(255,66,14)" stroke-linejoin="round" d="M 5070,5199 L 5170,5299 5270,5199 5170,5099 5070,5199 Z"/>
 <path fill="rgb(255,66,14)" stroke="none" d="M 5802,4522 L 5902,4622 6002,4522 5902,4422 5802,4522 Z"/>
 <path fill="none" stroke="rgb(255,66,14)" stroke-linejoin="round" d="M 5802,4522 L 5902,4622 6002,4522 5902,4422 5802,4522 Z"/>
 <path fill="rgb(255,66,14)" stroke="none" d="M 6534,3845 L 6634,3945 6734,3845 6634,3745 6534,3845 Z"/>
 <path fill="none" stroke="rgb(255,66,14)" stroke-linejoin="round" d="M 6534,3845 L 6634,3945 6734,3845 6634,3745 6534,3845 Z"/>
 <path fill="rgb(255,66,14)" stroke="none" d="M 6962,3449 L 7062,3549 7162,3449 7062,3349 6962,3449 Z"/>
 <path fill="none" stroke="rgb(255,66,14)" stroke-linejoin="round" d="M 6962,3449 L 7062,3549 7162,3449 7062,3349 6962,3449 Z"/>
 <path fill="rgb(255,66,14)" stroke="none" d="M 7266,3168 L 7366,3268 7466,3168 7366,3068 7266,3168 Z"/>
 <path fill="none" stroke="rgb(255,66,14)" stroke-linejoin="round" d="M 7266,3168 L 7366,3268 7466,3168 7366,3068 7266,3168 Z"/>
 <path fill="rgb(255,66,14)" stroke="none" d="M 7501,2950 L 7601,3050 7701,2950 7601,2850 7501,2950 Z"/>
 <path fill="none" stroke="rgb(255,66,14)" stroke-linejoin="round" d="M 7501,2950 L 7601,3050 7701,2950 7601,2850 7501,2950 Z"/>
 <path fill="rgb(255,66,14)" stroke="none" d="M 7693,2772 L 7793,2872 7893,2772 7793,2672 7693,2772 Z"/>
 <path fill="none" stroke="rgb(255,66,14)" stroke-linejoin="round" d="M 7693,2772 L 7793,2872 7893,2772 7793,2672 7693,2772 Z"/>
 <path fill="rgb(255,66,14)" stroke="none" d="M 7856,2621 L 7956,2721 8056,2621 7956,2521 7856,2621 Z"/>
 <path fill="none" stroke="rgb(255,66,14)" stroke-linejoin="round" d="M 7856,2621 L 7956,2721 8056,2621 7956,2521 7856,2621 Z"/>
 <path fill="rgb(255,66,14)" stroke="none" d="M 7997,2490 L 8097,2590 8197,2490 8097,2390 7997,2490 Z"/>
 <path fill="none" stroke="rgb(255,66,14)" stroke-linejoin="round" d="M 7997,2490 L 8097,2590 8197,2490 8097,2390 7997,2490 Z"/>
 <path fill="none" stroke="rgb(0,69,134)" stroke-linejoin="round" d="M 2738,7438 L 3470,6773 3899,6377 4202,6092 5170,5207 5902,4521 6634,3847 7062,3439 7366,3166 7601,2954 7793,2761 7956,2615 8097,2491"/>
 <path fill="rgb(0,69,134)" stroke="none" d="M 2688,7388 L 2688,7488 2788,7488 2788,7388 2688,7388 Z"/>
 <path fill="none" stroke="rgb(0,69,134)" stroke-linejoin="round" d="M 2688,7388 L 2688,7488 2788,7488 2788,7388 2688,7388 Z"/>
 <path fill="rgb(0,69,134)" stroke="none" d="M 3420,6723 L 3420,6823 3520,6823 3520,6723 3420,6723 Z"/>
 <path fill="none" stroke="rgb(0,69,134)" stroke-linejoin="round" d="M 3420,6723 L 3420,6823 3520,6823 3520,6723 3420,6723 Z"/>
 <path fill="rgb(0,69,134)" stroke="none" d="M 3849,6327 L 3849,6427 3949,6427 3949,6327 3849,6327 Z"/>
 <path fill="none" stroke="rgb(0,69,134)" stroke-linejoin="round" d="M 3849,6327 L 3849,6427 3949,6427 3949,6327 3849,6327 Z"/>
 <path fill="rgb(0,69,134)" stroke="none" d="M 4152,6042 L 4152,6142 4252,6142 4252,6042 4152,6042 Z"/>
 <path fill="none" stroke="rgb(0,69,134)" stroke-linejoin="round" d="M 4152,6042 L 4152,6142 4252,6142 4252,6042 4152,6042 Z"/>
 <path fill="rgb(0,69,134)" stroke="none" d="M 5120,5157 L 5120,5257 5220,5257 5220,5157 5120,5157 Z"/>
 <path fill="none" stroke="rgb(0,69,134)" stroke-linejoin="round" d="M 5120,5157 L 5120,5257 5220,5257 5220,5157 5120,5157 Z"/>
 <path fill="rgb(0,69,134)" stroke="none" d="M 5852,4471 L 5852,4571 5952,4571 5952,4471 5852,4471 Z"/>
 <path fill="none" stroke="rgb(0,69,134)" stroke-linejoin="round" d="M 5852,4471 L 5852,4571 5952,4571 5952,4471 5852,4471 Z"/>
 <path fill="rgb(0,69,134)" stroke="none" d="M 6584,3797 L 6584,3897 6684,3897 6684,3797 6584,3797 Z"/>
 <path fill="none" stroke="rgb(0,69,134)" stroke-linejoin="round" d="M 6584,3797 L 6584,3897 6684,3897 6684,3797 6584,3797 Z"/>
 <path fill="rgb(0,69,134)" stroke="none" d="M 7012,3389 L 7012,3489 7112,3489 7112,3389 7012,3389 Z"/>
 <path fill="none" stroke="rgb(0,69,134)" stroke-linejoin="round" d="M 7012,3389 L 7012,3489 7112,3489 7112,3389 7012,3389 Z"/>
 <path fill="rgb(0,69,134)" stroke="none" d="M 7316,3116 L 7316,3216 7416,3216 7416,3116 7316,3116 Z"/>
 <path fill="none" stroke="rgb(0,69,134)" stroke-linejoin="round" d="M 7316,3116 L 7316,3216 7416,3216 7416,3116 7316,3116 Z"/>
 <path fill="rgb(0,69,134)" stroke="none" d="M 7551,2904 L 7551,3004 7651,3004 7651,2904 7551,2904 Z"/>
 <path fill="none" stroke="rgb(0,69,134)" stroke-linejoin="round" d="M 7551,2904 L 7551,3004 7651,3004 7651,2904 7551,2904 Z"/>
 <path fill="rgb(0,69,134)" stroke="none" d="M 7743,2711 L 7743,2811 7843,2811 7843,2711 7743,2711 Z"/>
 <path fill="none" stroke="rgb(0,69,134)" stroke-linejoin="round" d="M 7743,2711 L 7743,2811 7843,2811 7843,2711 7743,2711 Z"/>
 <path fill="rgb(0,69,134)" stroke="none" d="M 7906,2565 L 7906,2665 8006,2665 8006,2565 7906,2565 Z"/>
 <path fill="none" stroke="rgb(0,69,134)" stroke-linejoin="round" d="M 7906,2565 L 7906,2665 8006,2665 8006,2565 7906,2565 Z"/>
 <path fill="rgb(0,69,134)" stroke="none" d="M 8047,2441 L 8047,2541 8147,2541 8147,2441 8047,2441 Z"/>
 <path fill="none" stroke="rgb(0,69,134)" stroke-linejoin="round" d="M 8047,2441 L 8047,2541 8147,2541 8147,2441 8047,2441 Z"/>
 <text class="TextShape"><tspan class="TextParagraph" font-family="Liberation Sans" font-size="353px" font-weight="400"><tspan class="TextPosition" x="1923" y="8558"><tspan fill="rgb(0,0,0)" stroke="none">0.32</tspan></tspan></tspan></text>
 <text class="TextShape"><tspan class="TextParagraph" font-family="Liberation Sans" font-size="353px" font-weight="400"><tspan class="TextPosition" x="3139" y="8558"><tspan fill="rgb(0,0,0)" stroke="none">1.00</tspan></tspan></tspan></text>
 <text class="TextShape"><tspan class="TextParagraph" font-family="Liberation Sans" font-size="353px" font-weight="400"><tspan class="TextPosition" x="4355" y="8558"><tspan fill="rgb(0,0,0)" stroke="none">3.16</tspan></tspan></tspan></text>
 <text class="TextShape"><tspan class="TextParagraph" font-family="Liberation Sans" font-size="353px" font-weight="400"><tspan class="TextPosition" x="5478" y="8558"><tspan fill="rgb(0,0,0)" stroke="none">10.00</tspan></tspan></tspan></text>
 <text class="TextShape"><tspan class="TextParagraph" font-family="Liberation Sans" font-size="353px" font-weight="400"><tspan class="TextPosition" x="6694" y="8558"><tspan fill="rgb(0,0,0)" stroke="none">31.62</tspan></tspan></tspan></text>
 <text class="TextShape"><tspan class="TextParagraph" font-family="Liberation Sans" font-size="353px" font-weight="400"><tspan class="TextPosition" x="7818" y="8558"><tspan fill="rgb(0,0,0)" stroke="none">100.00</tspan></tspan></tspan></text>
 <text class="TextShape"><tspan class="TextParagraph" font-family="Liberation Sans" font-size="353px" font-weight="400"><tspan class="TextPosition" x="1529" y="8110"><tspan fill="rgb(0,0,0)" stroke="none">3.2</tspan></tspan></tspan></text>
 <text class="TextShape"><tspan class="TextParagraph" font-family="Liberation Sans" font-size="353px" font-weight="400"><tspan class="TextPosition" x="1344" y="6986"><tspan fill="rgb(0,0,0)" stroke="none">10.0</tspan></tspan></tspan></text>
 <text class="TextShape"><tspan class="TextParagraph" font-family="Liberation Sans" font-size="353px" font-weight="400"><tspan class="TextPosition" x="1344" y="5861"><tspan fill="rgb(0,0,0)" stroke="none">31.6</tspan></tspan></tspan></text>
 <text class="TextShape"><tspan class="TextParagraph" font-family="Liberation Sans" font-size="353px" font-weight="400"><tspan class="TextPosition" x="1158" y="4736"><tspan fill="rgb(0,0,0)" stroke="none">100.0</tspan></tspan></tspan></text>
 <text class="TextShape"><tspan class="TextParagraph" font-family="Liberation Sans" font-size="353px" font-weight="400"><tspan class="TextPosition" x="1158" y="3611"><tspan fill="rgb(0,0,0)" stroke="none">316.2</tspan></tspan></tspan></text>
 <text class="TextShape"><tspan class="TextParagraph" font-family="Liberation Sans" font-size="353px" font-weight="400"><tspan class="TextPosition" x="973" y="2486"><tspan fill="rgb(0,0,0)" stroke="none">1000.0</tspan></tspan></tspan></text>
 <text class="TextShape"><tspan class="TextParagraph" font-family="Liberation Sans" font-size="459px" font-weight="400"><tspan class="TextPosition" x="6670" y="849"><tspan fill="rgb(0,0,0)" stroke="none">CT No.6</tspan></tspan></tspan></text>
 <text class="TextShape"><tspan class="TextParagraph" font-family="Liberation Sans" font-size="388px" font-weight="400"><tspan class="TextPosition" x="6749" y="1775"><tspan fill="rgb(0,0,0)" stroke="none">Linearity</tspan></tspan></tspan></text>
 <path fill="none" stroke="rgb(0,69,134)" stroke-linejoin="round" d="M 9602,4478 L 10402,4478"/>
 <path fill="rgb(0,69,134)" stroke="none" d="M 9907,4383 L 9907,4573 10097,4573 10097,4383 9907,4383 Z"/>
 <path fill="none" stroke="rgb(0,69,134)" stroke-linejoin="round" d="M 9907,4383 L 9907,4573 10097,4573 10097,4383 9907,4383 Z"/>
 <path fill="none" stroke="rgb(255,66,14)" stroke-width="20" stroke-linejoin="round" d="M 9602,5318 L 10402,5318"/>
 <path fill="rgb(255,66,14)" stroke="none" d="M 9907,5318 L 10002,5413 10097,5318 10002,5223 9907,5318 Z"/>
 <path fill="none" stroke="rgb(255,66,14)" stroke-linejoin="round" d="M 9907,5318 L 10002,5413 10097,5318 10002,5223 9907,5318 Z"/>
 <text class="TextShape"><tspan class="TextParagraph" font-family="Liberation Sans" font-size="318px" font-weight="400"><tspan class="TextPosition" x="10502" y="4584"><tspan fill="rgb(0,0,0)" stroke="none">Burden voltage</tspan></tspan></tspan><tspan class="TextParagraph" font-family="Liberation Sans" font-size="318px" font-weight="400"><tspan class="TextPosition" x="10502" y="4953"><tspan fill="rgb(0,0,0)" stroke="none">(mV rms)</tspan></tspan></tspan></text>
 <text class="TextShape"><tspan class="TextParagraph" font-family="Liberation Sans" font-size="318px" font-weight="400"><tspan class="TextPosition" x="10502" y="5424"><tspan fill="rgb(0,0,0)" stroke="none">Design Burden Voltage (mV)</tspan></tspan></tspan></text>
 <text class="TextShape"><tspan class="TextParagraph" font-family="Liberation Sans" font-size="318px" font-weight="400"><tspan class="TextPosition" x="3883" y="9221"><tspan fill="rgb(0,0,0)" stroke="none">Primary Current (A)</tspan></tspan></tspan></text>
 <text class="TextShape" transform="translate(872,7281) rotate(-90) translate(-872,-7281)"><tspan class="TextParagraph" font-family="Liberation Sans" font-size="318px" font-weight="400"><tspan class="TextPosition" x="872" y="7281"><tspan fill="rgb(0,0,0)" stroke="none">Burden Voltage (22Ω, mV)</tspan></tspan></tspan></text>
</svg>