<?xml version="1.0" encoding="UTF-8"?>
<!DOCTYPE svg PUBLIC "-//W3C//DTD SVG 1.1//EN" "http://www.w3.org/Graphics/SVG/1.1/DTD/svg11.dtd">
<svg width="149mm" height="95mm" viewBox="0 0 14900 9500" version="1.1" xmlns="http://www.w3.org/2000/svg" stroke-width="28.222" stroke-linejoin="round" xml:space="preserve">
 <path fill="rgb(255,255,255)" stroke="none" d="M 7467,9416 L 35,9416 35,-68 14899,-68 14899,9416 7467,9416 Z"/>
 <path fill="none" stroke="rgb(179,179,179)" stroke-linejoin="round" d="M 5433,7599 L 2150,7599 2150,2296 8716,2296 8716,7599 5433,7599 Z"/>
 <path fill="none" stroke="rgb(179,179,179)" stroke-linejoin="round" d="M 8716,7598 L 2150,7598"/>
 <path fill="none" stroke="rgb(179,179,179)" stroke-linejoin="round" d="M 8716,7067 L 2150,7067"/>
 <path fill="none" stroke="rgb(179,179,179)" stroke-linejoin="round" d="M 8716,6537 L 2150,6537"/>
 <path fill="none" stroke="rgb(179,179,179)" stroke-linejoin="round" d="M 8716,6006 L 2150,6006"/>
 <path fill="none" stroke="rgb(179,179,179)" stroke-linejoin="round" d="M 8716,5476 L 2150,5476"/>
 <path fill="none" stroke="rgb(179,179,179)" stroke-linejoin="round" d="M 8716,4946 L 2150,4946"/>
 <path fill="none" stroke="rgb(179,179,179)" stroke-linejoin="round" d="M 8716,4416 L 2150,4416"/>
 <path fill="none" stroke="rgb(179,179,179)" stroke-linejoin="round" d="M 8716,3886 L 2150,3886"/>
 <path fill="none" stroke="rgb(179,179,179)" stroke-linejoin="round" d="M 8716,3355 L 2150,3355"/>
 <path fill="none" stroke="rgb(179,179,179)" stroke-linejoin="round" d="M 8716,2825 L 2150,2825"/>
 <path fill="none" stroke="rgb(179,179,179)" stroke-linejoin="round" d="M 8716,2295 L 2150,2295"/>
 <path fill="none" stroke="rgb(179,179,179)" stroke-linejoin="round" d="M 2150,7748 L 2150,7598"/>
 <path fill="none" stroke="rgb(179,179,179)" stroke-linejoin="round" d="M 2150,7748 L 2150,7598"/>
 <path fill="none" stroke="rgb(179,179,179)" stroke-linejoin="round" d="M 3244,7748 L 3244,7598"/>
 <path fill="none" stroke="rgb(179,179,179)" stroke-linejoin="round" d="M 3244,7748 L 3244,7598"/>
 <path fill="none" stroke="rgb(179,179,179)" stroke-linejoin="round" d="M 4339,7748 L 4339,7598"/>
 <path fill="none" stroke="rgb(179,179,179)" stroke-linejoin="round" d="M 4339,7748 L 4339,7598"/>
 <path fill="none" stroke="rgb(179,179,179)" stroke-linejoin="round" d="M 5433,7748 L 5433,7598"/>
 <path fill="none" stroke="rgb(179,179,179)" stroke-linejoin="round" d="M 5433,7748 L 5433,7598"/>
 <path fill="none" stroke="rgb(179,179,179)" stroke-linejoin="round" d="M 6528,7748 L 6528,7598"/>
 <path fill="none" stroke="rgb(179,179,179)" stroke-linejoin="round" d="M 6528,7748 L 6528,7598"/>
 <path fill="none" stroke="rgb(179,179,179)" stroke-linejoin="round" d="M 7621,7748 L 7621,7598"/>
 <path fill="none" stroke="rgb(179,179,179)" stroke-linejoin="round" d="M 7621,7748 L 7621,7598"/>
 <path fill="none" stroke="rgb(179,179,179)" stroke-linejoin="round" d="M 8716,7748 L 8716,7598"/>
 <path fill="none" stroke="rgb(179,179,179)" stroke-linejoin="round" d="M 8716,7748 L 8716,7598"/>
 <path fill="none" stroke="rgb(179,179,179)" stroke-linejoin="round" d="M 2150,7598 L 8716,7598"/>
 <path fill="none" stroke="rgb(179,179,179)" stroke-linejoin="round" d="M 2000,7598 L 2150,7598"/>
 <path fill="none" stroke="rgb(179,179,179)" stroke-linejoin="round" d="M 2000,7598 L 2150,7598"/>
 <path fill="none" stroke="rgb(179,179,179)" stroke-linejoin="round" d="M 2000,7067 L 2150,7067"/>
 <path fill="none" stroke="rgb(179,179,179)" stroke-linejoin="round" d="M 2000,7067 L 2150,7067"/>
 <path fill="none" stroke="rgb(179,179,179)" stroke-linejoin="round" d="M 2000,6537 L 2150,6537"/>
 <path fill="none" stroke="rgb(179,179,179)" stroke-linejoin="round" d="M 2000,6537 L 2150,6537"/>
 <path fill="none" stroke="rgb(179,179,179)" stroke-linejoin="round" d="M 2000,6006 L 2150,6006"/>
 <path fill="none" stroke="rgb(179,179,179)" stroke-linejoin="round" d="M 2000,6006 L 2150,6006"/>
 <path fill="none" stroke="rgb(179,179,179)" stroke-linejoin="round" d="M 2000,5476 L 2150,5476"/>
 <path fill="none" stroke="rgb(179,179,179)" stroke-linejoin="round" d="M 2000,5476 L 2150,5476"/>
 <path fill="none" stroke="rgb(179,179,179)" stroke-linejoin="round" d="M 2000,4946 L 2150,4946"/>
 <path fill="none" stroke="rgb(179,179,179)" stroke-linejoin="round" d="M 2000,4946 L 2150,4946"/>
 <path fill="none" stroke="rgb(179,179,179)" stroke-linejoin="round" d="M 2000,4416 L 2150,4416"/>
 <path fill="none" stroke="rgb(179,179,179)" stroke-linejoin="round" d="M 2000,4416 L 2150,4416"/>
 <path fill="none" stroke="rgb(179,179,179)" stroke-linejoin="round" d="M 2000,3886 L 2150,3886"/>
 <path fill="none" stroke="rgb(179,179,179)" stroke-linejoin="round" d="M 2000,3886 L 2150,3886"/>
 <path fill="none" stroke="rgb(179,179,179)" stroke-linejoin="round" d="M 2000,3355 L 2150,3355"/>
 <path fill="none" stroke="rgb(179,179,179)" stroke-linejoin="round" d="M 2000,3355 L 2150,3355"/>
 <path fill="none" stroke="rgb(179,179,179)" stroke-linejoin="round" d="M 2000,2825 L 2150,2825"/>
 <path fill="none" stroke="rgb(179,179,179)" stroke-linejoin="round" d="M 2000,2825 L 2150,2825"/>
 <path fill="none" stroke="rgb(179,179,179)" stroke-linejoin="round" d="M 2000,2295 L 2150,2295"/>
 <path fill="none" stroke="rgb(179,179,179)" stroke-linejoin="round" d="M 2000,2295 L 2150,2295"/>
 <path fill="none" stroke="rgb(179,179,179)" stroke-linejoin="round" d="M 2150,7598 L 2150,2295"/>
 <path fill="none" stroke="rgb(255,66,14)" stroke-linejoin="round" d="M 2160,7583 L 2171,7568 2182,7554 2193,7539 2259,7452 2368,7306 2587,7014 2806,6722 3025,6431 3244,6139 3463,5847 3682,5555 3901,5264 4120,4972 4339,4680 4776,4098 5214,3514 5652,2931"/>
 <path fill="rgb(255,66,14)" stroke="none" d="M 2160,7583 L 2160,7583 Z"/>
 <path fill="none" stroke="rgb(255,66,14)" stroke-linejoin="round" d="M 2160,7583 L 2160,7583 Z"/>
 <path fill="rgb(255,66,14)" stroke="none" d="M 2171,7568 L 2171,7568 Z"/>
 <path fill="none" stroke="rgb(255,66,14)" stroke-linejoin="round" d="M 2171,7568 L 2171,7568 Z"/>
 <path fill="rgb(255,66,14)" stroke="none" d="M 2182,7554 L 2182,7554 Z"/>
 <path fill="none" stroke="rgb(255,66,14)" stroke-linejoin="round" d="M 2182,7554 L 2182,7554 Z"/>
 <path fill="rgb(255,66,14)" stroke="none" d="M 2193,7539 L 2193,7539 Z"/>
 <path fill="none" stroke="rgb(255,66,14)" stroke-linejoin="round" d="M 2193,7539 L 2193,7539 Z"/>
 <path fill="rgb(255,66,14)" stroke="none" d="M 2259,7452 L 2259,7452 Z"/>
 <path fill="none" stroke="rgb(255,66,14)" stroke-linejoin="round" d="M 2259,7452 L 2259,7452 Z"/>
 <path fill="rgb(255,66,14)" stroke="none" d="M 2368,7306 L 2368,7306 Z"/>
 <path fill="none" stroke="rgb(255,66,14)" stroke-linejoin="round" d="M 2368,7306 L 2368,7306 Z"/>
 <path fill="rgb(255,66,14)" stroke="none" d="M 2587,7014 L 2587,7014 Z"/>
 <path fill="none" stroke="rgb(255,66,14)" stroke-linejoin="round" d="M 2587,7014 L 2587,7014 Z"/>
 <path fill="rgb(255,66,14)" stroke="none" d="M 2806,6722 L 2806,6722 Z"/>
 <path fill="none" stroke="rgb(255,66,14)" stroke-linejoin="round" d="M 2806,6722 L 2806,6722 Z"/>
 <path fill="rgb(255,66,14)" stroke="none" d="M 3025,6431 L 3025,6431 Z"/>
 <path fill="none" stroke="rgb(255,66,14)" stroke-linejoin="round" d="M 3025,6431 L 3025,6431 Z"/>
 <path fill="rgb(255,66,14)" stroke="none" d="M 3244,6139 L 3244,6139 Z"/>
 <path fill="none" stroke="rgb(255,66,14)" stroke-linejoin="round" d="M 3244,6139 L 3244,6139 Z"/>
 <path fill="rgb(255,66,14)" stroke="none" d="M 3463,5847 L 3463,5847 Z"/>
 <path fill="none" stroke="rgb(255,66,14)" stroke-linejoin="round" d="M 3463,5847 L 3463,5847 Z"/>
 <path fill="rgb(255,66,14)" stroke="none" d="M 3682,5555 L 3682,5555 Z"/>
 <path fill="none" stroke="rgb(255,66,14)" stroke-linejoin="round" d="M 3682,5555 L 3682,5555 Z"/>
 <path fill="rgb(255,66,14)" stroke="none" d="M 3901,5264 L 3901,5264 Z"/>
 <path fill="none" stroke="rgb(255,66,14)" stroke-linejoin="round" d="M 3901,5264 L 3901,5264 Z"/>
 <path fill="rgb(255,66,14)" stroke="none" d="M 4120,4972 L 4120,4972 Z"/>
 <path fill="none" stroke="rgb(255,66,14)" stroke-linejoin="round" d="M 4120,4972 L 4120,4972 Z"/>
 <path fill="rgb(255,66,14)" stroke="none" d="M 4339,4680 L 4339,4680 Z"/>
 <path fill="none" stroke="rgb(255,66,14)" stroke-linejoin="round" d="M 4339,4680 L 4339,4680 Z"/>
 <path fill="rgb(255,66,14)" stroke="none" d="M 4776,4098 L 4776,4098 Z"/>
 <path fill="none" stroke="rgb(255,66,14)" stroke-linejoin="round" d="M 4776,4098 L 4776,4098 Z"/>
 <path fill="rgb(255,66,14)" stroke="none" d="M 5214,3514 L 5214,3514 Z"/>
 <path fill="none" stroke="rgb(255,66,14)" stroke-linejoin="round" d="M 5214,3514 L 5214,3514 Z"/>
 <path fill="rgb(255,66,14)" stroke="none" d="M 5652,2931 L 5652,2931 Z"/>
 <path fill="none" stroke="rgb(255,66,14)" stroke-linejoin="round" d="M 5652,2931 L 5652,2931 Z"/>
 <path fill="none" stroke="rgb(0,69,134)" stroke-linejoin="round" d="M 2160,7583 L 2171,7568 2182,7554 2193,7539 2259,7453 2368,7306 2587,7015 2806,6714 3025,6428 3244,6146 3463,5828 3682,5542 3901,5264 4120,4969 4339,4680 4776,4188 5214,3854 5652,3647 6090,3445 6528,3302 7075,3215 7621,3069"/>
 <path fill="rgb(0,69,134)" stroke="none" d="M 2135,7558 L 2135,7608 2185,7608 2185,7558 2135,7558 Z"/>
 <path fill="none" stroke="rgb(0,69,134)" stroke-linejoin="round" d="M 2135,7558 L 2135,7608 2185,7608 2185,7558 2135,7558 Z"/>
 <path fill="rgb(0,69,134)" stroke="none" d="M 2146,7543 L 2146,7593 2196,7593 2196,7543 2146,7543 Z"/>
 <path fill="none" stroke="rgb(0,69,134)" stroke-linejoin="round" d="M 2146,7543 L 2146,7593 2196,7593 2196,7543 2146,7543 Z"/>
 <path fill="rgb(0,69,134)" stroke="none" d="M 2157,7529 L 2157,7579 2207,7579 2207,7529 2157,7529 Z"/>
 <path fill="none" stroke="rgb(0,69,134)" stroke-linejoin="round" d="M 2157,7529 L 2157,7579 2207,7579 2207,7529 2157,7529 Z"/>
 <path fill="rgb(0,69,134)" stroke="none" d="M 2168,7514 L 2168,7564 2218,7564 2218,7514 2168,7514 Z"/>
 <path fill="none" stroke="rgb(0,69,134)" stroke-linejoin="round" d="M 2168,7514 L 2168,7564 2218,7564 2218,7514 2168,7514 Z"/>
 <path fill="rgb(0,69,134)" stroke="none" d="M 2234,7428 L 2234,7478 2284,7478 2284,7428 2234,7428 Z"/>
 <path fill="none" stroke="rgb(0,69,134)" stroke-linejoin="round" d="M 2234,7428 L 2234,7478 2284,7478 2284,7428 2234,7428 Z"/>
 <path fill="rgb(0,69,134)" stroke="none" d="M 2343,7281 L 2343,7331 2393,7331 2393,7281 2343,7281 Z"/>
 <path fill="none" stroke="rgb(0,69,134)" stroke-linejoin="round" d="M 2343,7281 L 2343,7331 2393,7331 2393,7281 2343,7281 Z"/>
 <path fill="rgb(0,69,134)" stroke="none" d="M 2562,6990 L 2562,7040 2612,7040 2612,6990 2562,6990 Z"/>
 <path fill="none" stroke="rgb(0,69,134)" stroke-linejoin="round" d="M 2562,6990 L 2562,7040 2612,7040 2612,6990 2562,6990 Z"/>
 <path fill="rgb(0,69,134)" stroke="none" d="M 2781,6689 L 2781,6739 2831,6739 2831,6689 2781,6689 Z"/>
 <path fill="none" stroke="rgb(0,69,134)" stroke-linejoin="round" d="M 2781,6689 L 2781,6739 2831,6739 2831,6689 2781,6689 Z"/>
 <path fill="rgb(0,69,134)" stroke="none" d="M 3000,6403 L 3000,6453 3050,6453 3050,6403 3000,6403 Z"/>
 <path fill="none" stroke="rgb(0,69,134)" stroke-linejoin="round" d="M 3000,6403 L 3000,6453 3050,6453 3050,6403 3000,6403 Z"/>
 <path fill="rgb(0,69,134)" stroke="none" d="M 3219,6121 L 3219,6171 3269,6171 3269,6121 3219,6121 Z"/>
 <path fill="none" stroke="rgb(0,69,134)" stroke-linejoin="round" d="M 3219,6121 L 3219,6171 3269,6171 3269,6121 3219,6121 Z"/>
 <path fill="rgb(0,69,134)" stroke="none" d="M 3438,5803 L 3438,5853 3488,5853 3488,5803 3438,5803 Z"/>
 <path fill="none" stroke="rgb(0,69,134)" stroke-linejoin="round" d="M 3438,5803 L 3438,5853 3488,5853 3488,5803 3438,5803 Z"/>
 <path fill="rgb(0,69,134)" stroke="none" d="M 3657,5517 L 3657,5567 3707,5567 3707,5517 3657,5517 Z"/>
 <path fill="none" stroke="rgb(0,69,134)" stroke-linejoin="round" d="M 3657,5517 L 3657,5567 3707,5567 3707,5517 3657,5517 Z"/>
 <path fill="rgb(0,69,134)" stroke="none" d="M 3876,5239 L 3876,5289 3926,5289 3926,5239 3876,5239 Z"/>
 <path fill="none" stroke="rgb(0,69,134)" stroke-linejoin="round" d="M 3876,5239 L 3876,5289 3926,5289 3926,5239 3876,5239 Z"/>
 <path fill="rgb(0,69,134)" stroke="none" d="M 4095,4944 L 4095,4994 4145,4994 4145,4944 4095,4944 Z"/>
 <path fill="none" stroke="rgb(0,69,134)" stroke-linejoin="round" d="M 4095,4944 L 4095,4994 4145,4994 4145,4944 4095,4944 Z"/>
 <path fill="rgb(0,69,134)" stroke="none" d="M 4314,4656 L 4314,4705 4364,4705 4364,4656 4314,4656 Z"/>
 <path fill="none" stroke="rgb(0,69,134)" stroke-linejoin="round" d="M 4314,4656 L 4314,4705 4364,4705 4364,4656 4314,4656 Z"/>
 <path fill="rgb(0,69,134)" stroke="none" d="M 4751,4163 L 4751,4213 4801,4213 4801,4163 4751,4163 Z"/>
 <path fill="none" stroke="rgb(0,69,134)" stroke-linejoin="round" d="M 4751,4163 L 4751,4213 4801,4213 4801,4163 4751,4163 Z"/>
 <path fill="rgb(0,69,134)" stroke="none" d="M 5189,3829 L 5189,3879 5239,3879 5239,3829 5189,3829 Z"/>
 <path fill="none" stroke="rgb(0,69,134)" stroke-linejoin="round" d="M 5189,3829 L 5189,3879 5239,3879 5239,3829 5189,3829 Z"/>
 <path fill="rgb(0,69,134)" stroke="none" d="M 5627,3622 L 5627,3672 5677,3672 5677,3622 5627,3622 Z"/>
 <path fill="none" stroke="rgb(0,69,134)" stroke-linejoin="round" d="M 5627,3622 L 5627,3672 5677,3672 5677,3622 5627,3622 Z"/>
 <path fill="rgb(0,69,134)" stroke="none" d="M 6065,3420 L 6065,3470 6115,3470 6115,3420 6065,3420 Z"/>
 <path fill="none" stroke="rgb(0,69,134)" stroke-linejoin="round" d="M 6065,3420 L 6065,3470 6115,3470 6115,3420 6065,3420 Z"/>
 <path fill="rgb(0,69,134)" stroke="none" d="M 6503,3277 L 6503,3327 6553,3327 6553,3277 6503,3277 Z"/>
 <path fill="none" stroke="rgb(0,69,134)" stroke-linejoin="round" d="M 6503,3277 L 6503,3327 6553,3327 6553,3277 6503,3277 Z"/>
 <path fill="rgb(0,69,134)" stroke="none" d="M 7050,3190 L 7050,3240 7100,3240 7100,3190 7050,3190 Z"/>
 <path fill="none" stroke="rgb(0,69,134)" stroke-linejoin="round" d="M 7050,3190 L 7050,3240 7100,3240 7100,3190 7050,3190 Z"/>
 <path fill="rgb(0,69,134)" stroke="none" d="M 7596,3044 L 7596,3094 7646,3094 7646,3044 7596,3044 Z"/>
 <path fill="none" stroke="rgb(0,69,134)" stroke-linejoin="round" d="M 7596,3044 L 7596,3094 7646,3094 7646,3044 7596,3044 Z"/>
 <text class="TextShape"><tspan class="TextParagraph" font-family="Liberation Sans" font-size="353px" font-weight="400"><tspan class="TextPosition" x="2057" y="8166"><tspan fill="rgb(0,0,0)" stroke="none">0</tspan></tspan></tspan></text>
 <text class="TextShape"><tspan class="TextParagraph" font-family="Liberation Sans" font-size="353px" font-weight="400"><tspan class="TextPosition" x="3059" y="8166"><tspan fill="rgb(0,0,0)" stroke="none">50</tspan></tspan></tspan></text>
 <text class="TextShape"><tspan class="TextParagraph" font-family="Liberation Sans" font-size="353px" font-weight="400"><tspan class="TextPosition" x="4061" y="8166"><tspan fill="rgb(0,0,0)" stroke="none">100</tspan></tspan></tspan></text>
 <text class="TextShape"><tspan class="TextParagraph" font-family="Liberation Sans" font-size="353px" font-weight="400"><tspan class="TextPosition" x="5155" y="8166"><tspan fill="rgb(0,0,0)" stroke="none">150</tspan></tspan></tspan></text>
 <text class="TextShape"><tspan class="TextParagraph" font-family="Liberation Sans" font-size="353px" font-weight="400"><tspan class="TextPosition" x="6250" y="8166"><tspan fill="rgb(0,0,0)" stroke="none">200</tspan></tspan></tspan></text>
 <text class="TextShape"><tspan class="TextParagraph" font-family="Liberation Sans" font-size="353px" font-weight="400"><tspan class="TextPosition" x="7344" y="8166"><tspan fill="rgb(0,0,0)" stroke="none">250</tspan></tspan></tspan></text>
 <text class="TextShape"><tspan class="TextParagraph" font-family="Liberation Sans" font-size="353px" font-weight="400"><tspan class="TextPosition" x="8439" y="8166"><tspan fill="rgb(0,0,0)" stroke="none">300</tspan></tspan></tspan></text>
 <text class="TextShape"><tspan class="TextParagraph" font-family="Liberation Sans" font-size="353px" font-weight="400"><tspan class="TextPosition" x="1715" y="7719"><tspan fill="rgb(0,0,0)" stroke="none">0</tspan></tspan></tspan></text>
 <text class="TextShape"><tspan class="TextParagraph" font-family="Liberation Sans" font-size="353px" font-weight="400"><tspan class="TextPosition" x="1344" y="7188"><tspan fill="rgb(0,0,0)" stroke="none">200</tspan></tspan></tspan></text>
 <text class="TextShape"><tspan class="TextParagraph" font-family="Liberation Sans" font-size="353px" font-weight="400"><tspan class="TextPosition" x="1344" y="6658"><tspan fill="rgb(0,0,0)" stroke="none">400</tspan></tspan></tspan></text>
 <text class="TextShape"><tspan class="TextParagraph" font-family="Liberation Sans" font-size="353px" font-weight="400"><tspan class="TextPosition" x="1344" y="6127"><tspan fill="rgb(0,0,0)" stroke="none">600</tspan></tspan></tspan></text>
 <text class="TextShape"><tspan class="TextParagraph" font-family="Liberation Sans" font-size="353px" font-weight="400"><tspan class="TextPosition" x="1344" y="5597"><tspan fill="rgb(0,0,0)" stroke="none">800</tspan></tspan></tspan></text>
 <text class="TextShape"><tspan class="TextParagraph" font-family="Liberation Sans" font-size="353px" font-weight="400"><tspan class="TextPosition" x="1159" y="5067"><tspan fill="rgb(0,0,0)" stroke="none">1000</tspan></tspan></tspan></text>
 <text class="TextShape"><tspan class="TextParagraph" font-family="Liberation Sans" font-size="353px" font-weight="400"><tspan class="TextPosition" x="1159" y="4536"><tspan fill="rgb(0,0,0)" stroke="none">1200</tspan></tspan></tspan></text>
 <text class="TextShape"><tspan class="TextParagraph" font-family="Liberation Sans" font-size="353px" font-weight="400"><tspan class="TextPosition" x="1159" y="4006"><tspan fill="rgb(0,0,0)" stroke="none">1400</tspan></tspan></tspan></text>
 <text class="TextShape"><tspan class="TextParagraph" font-family="Liberation Sans" font-size="353px" font-weight="400"><tspan class="TextPosition" x="1159" y="3475"><tspan fill="rgb(0,0,0)" stroke="none">1600</tspan></tspan></tspan></text>
 <text class="TextShape"><tspan class="TextParagraph" font-family="Liberation Sans" font-size="353px" font-weight="400"><tspan class="TextPosition" x="1159" y="2945"><tspan fill="rgb(0,0,0)" stroke="none">1800</tspan></tspan></tspan></text>
 <text class="TextShape"><tspan class="TextParagraph" font-family="Liberation Sans" font-size="353px" font-weight="400"><tspan class="TextPosition" x="1159" y="2415"><tspan fill="rgb(0,0,0)" stroke="none">2000</tspan></tspan></tspan></text>
 <text class="TextShape"><tspan class="TextParagraph" font-family="Liberation Sans" font-size="459px" font-weight="400"><tspan class="TextPosition" x="6660" y="792"><tspan fill="rgb(0,0,0)" stroke="none">CT No.6</tspan></tspan></tspan></text>
 <text class="TextShape"><tspan class="TextParagraph" font-family="Liberation Sans" font-size="388px" font-weight="400"><tspan class="TextPosition" x="6594" y="1711"><tspan fill="rgb(0,0,0)" stroke="none">Saturation</tspan></tspan></tspan></text>
 <path fill="none" stroke="rgb(0,69,134)" stroke-linejoin="round" d="M 9582,4253 L 10382,4253"/>
 <path fill="rgb(0,69,134)" stroke="none" d="M 9887,4158 L 9887,4348 10077,4348 10077,4158 9887,4158 Z"/>
 <path fill="none" stroke="rgb(0,69,134)" stroke-linejoin="round" d="M 9887,4158 L 9887,4348 10077,4348 10077,4158 9887,4158 Z"/>
 <path fill="none" stroke="rgb(255,66,14)" stroke-linejoin="round" d="M 9582,5093 L 10382,5093"/>
 <path fill="rgb(255,66,14)" stroke="none" d="M 9887,5093 L 9982,5188 10077,5093 9982,4998 9887,5093 Z"/>
 <path fill="none" stroke="rgb(255,66,14)" stroke-linejoin="round" d="M 9887,5093 L 9982,5188 10077,5093 9982,4998 9887,5093 Z"/>
 <text class="TextShape"><tspan class="TextParagraph" font-family="Liberation Sans" font-size="318px" font-weight="400"><tspan class="TextPosition" x="10482" y="4359"><tspan fill="rgb(0,0,0)" stroke="none">Burden voltage</tspan></tspan></tspan><tspan class="TextParagraph" font-family="Liberation Sans" font-size="318px" font-weight="400"><tspan class="TextPosition" x="10482" y="4728"><tspan fill="rgb(0,0,0)" stroke="none">(mV rms)</tspan></tspan></tspan></text>
 <text class="TextShape"><tspan class="TextParagraph" font-family="Liberation Sans" font-size="318px" font-weight="400"><tspan class="TextPosition" x="10482" y="5199"><tspan fill="rgb(0,0,0)" stroke="none">Design Burden Voltage (mV)</tspan></tspan></tspan></text>
 <text class="TextShape"><tspan class="TextParagraph" font-family="Liberation Sans" font-size="318px" font-weight="400"><tspan class="TextPosition" x="3926" y="8822"><tspan fill="rgb(0,0,0)" stroke="none">Primary Curent (A)</tspan></tspan></tspan></text>
 <text class="TextShape" transform="translate(872,7354) rotate(-90) translate(-872,-7354)"><tspan class="TextParagraph" font-family="Liberation Sans" font-size="318px" font-weight="400"><tspan class="TextPosition" x="872" y="7354"><tspan fill="rgb(0,0,0)" stroke="none">Burden Voltage (22Ω, mV rms)</tspan></tspan></tspan></text>
</svg>