<?xml version="1.0" encoding="UTF-8"?>
<!DOCTYPE svg PUBLIC "-//W3C//DTD SVG 1.1//EN" "http://www.w3.org/Graphics/SVG/1.1/DTD/svg11.dtd">
<svg width="150mm" height="93mm" viewBox="0 0 15000 9300" version="1.1" xmlns="http://www.w3.org/2000/svg" stroke-width="28.222" stroke-linejoin="round" xml:space="preserve">
 <path fill="rgb(255,255,255)" stroke="none" d="M 7542,9282 L 42,9282 42,-5 15042,-5 15042,9282 7542,9282 Z"/>
 <path fill="none" stroke="rgb(179,179,179)" stroke-linejoin="round" d="M 6249,7469 L 1789,7469 1789,2347 10708,2347 10708,7469 6249,7469 Z"/>
 <path fill="none" stroke="rgb(179,179,179)" stroke-linejoin="round" d="M 10708,7468 L 1788,7468"/>
 <path fill="none" stroke="rgb(179,179,179)" stroke-linejoin="round" d="M 10708,6898 L 1788,6898"/>
 <path fill="none" stroke="rgb(179,179,179)" stroke-linejoin="round" d="M 10708,6329 L 1788,6329"/>
 <path fill="none" stroke="rgb(179,179,179)" stroke-linejoin="round" d="M 10708,5760 L 1788,5760"/>
 <path fill="none" stroke="rgb(179,179,179)" stroke-linejoin="round" d="M 10708,5191 L 1788,5191"/>
 <path fill="none" stroke="rgb(179,179,179)" stroke-linejoin="round" d="M 10708,4622 L 1788,4622"/>
 <path fill="none" stroke="rgb(179,179,179)" stroke-linejoin="round" d="M 10708,4053 L 1788,4053"/>
 <path fill="none" stroke="rgb(179,179,179)" stroke-linejoin="round" d="M 10708,3484 L 1788,3484"/>
 <path fill="none" stroke="rgb(179,179,179)" stroke-linejoin="round" d="M 10708,2915 L 1788,2915"/>
 <path fill="none" stroke="rgb(179,179,179)" stroke-linejoin="round" d="M 10708,2346 L 1788,2346"/>
 <path fill="none" stroke="rgb(179,179,179)" stroke-linejoin="round" d="M 1788,7618 L 1788,7468"/>
 <path fill="none" stroke="rgb(179,179,179)" stroke-linejoin="round" d="M 1788,7618 L 1788,7468"/>
 <path fill="none" stroke="rgb(179,179,179)" stroke-linejoin="round" d="M 3275,7618 L 3275,7468"/>
 <path fill="none" stroke="rgb(179,179,179)" stroke-linejoin="round" d="M 3275,7618 L 3275,7468"/>
 <path fill="none" stroke="rgb(179,179,179)" stroke-linejoin="round" d="M 4762,7618 L 4762,7468"/>
 <path fill="none" stroke="rgb(179,179,179)" stroke-linejoin="round" d="M 4762,7618 L 4762,7468"/>
 <path fill="none" stroke="rgb(179,179,179)" stroke-linejoin="round" d="M 6248,7618 L 6248,7468"/>
 <path fill="none" stroke="rgb(179,179,179)" stroke-linejoin="round" d="M 6248,7618 L 6248,7468"/>
 <path fill="none" stroke="rgb(179,179,179)" stroke-linejoin="round" d="M 7734,7618 L 7734,7468"/>
 <path fill="none" stroke="rgb(179,179,179)" stroke-linejoin="round" d="M 7734,7618 L 7734,7468"/>
 <path fill="none" stroke="rgb(179,179,179)" stroke-linejoin="round" d="M 9221,7618 L 9221,7468"/>
 <path fill="none" stroke="rgb(179,179,179)" stroke-linejoin="round" d="M 9221,7618 L 9221,7468"/>
 <path fill="none" stroke="rgb(179,179,179)" stroke-linejoin="round" d="M 10708,7618 L 10708,7468"/>
 <path fill="none" stroke="rgb(179,179,179)" stroke-linejoin="round" d="M 10708,7618 L 10708,7468"/>
 <path fill="none" stroke="rgb(179,179,179)" stroke-linejoin="round" d="M 1788,7468 L 10708,7468"/>
 <path fill="none" stroke="rgb(179,179,179)" stroke-linejoin="round" d="M 1638,7468 L 1788,7468"/>
 <path fill="none" stroke="rgb(179,179,179)" stroke-linejoin="round" d="M 1638,7468 L 1788,7468"/>
 <path fill="none" stroke="rgb(179,179,179)" stroke-linejoin="round" d="M 1638,6898 L 1788,6898"/>
 <path fill="none" stroke="rgb(179,179,179)" stroke-linejoin="round" d="M 1638,6898 L 1788,6898"/>
 <path fill="none" stroke="rgb(179,179,179)" stroke-linejoin="round" d="M 1638,6329 L 1788,6329"/>
 <path fill="none" stroke="rgb(179,179,179)" stroke-linejoin="round" d="M 1638,6329 L 1788,6329"/>
 <path fill="none" stroke="rgb(179,179,179)" stroke-linejoin="round" d="M 1638,5760 L 1788,5760"/>
 <path fill="none" stroke="rgb(179,179,179)" stroke-linejoin="round" d="M 1638,5760 L 1788,5760"/>
 <path fill="none" stroke="rgb(179,179,179)" stroke-linejoin="round" d="M 1638,5191 L 1788,5191"/>
 <path fill="none" stroke="rgb(179,179,179)" stroke-linejoin="round" d="M 1638,5191 L 1788,5191"/>
 <path fill="none" stroke="rgb(179,179,179)" stroke-linejoin="round" d="M 1638,4622 L 1788,4622"/>
 <path fill="none" stroke="rgb(179,179,179)" stroke-linejoin="round" d="M 1638,4622 L 1788,4622"/>
 <path fill="none" stroke="rgb(179,179,179)" stroke-linejoin="round" d="M 1638,4053 L 1788,4053"/>
 <path fill="none" stroke="rgb(179,179,179)" stroke-linejoin="round" d="M 1638,4053 L 1788,4053"/>
 <path fill="none" stroke="rgb(179,179,179)" stroke-linejoin="round" d="M 1638,3484 L 1788,3484"/>
 <path fill="none" stroke="rgb(179,179,179)" stroke-linejoin="round" d="M 1638,3484 L 1788,3484"/>
 <path fill="none" stroke="rgb(179,179,179)" stroke-linejoin="round" d="M 1638,2915 L 1788,2915"/>
 <path fill="none" stroke="rgb(179,179,179)" stroke-linejoin="round" d="M 1638,2915 L 1788,2915"/>
 <path fill="none" stroke="rgb(179,179,179)" stroke-linejoin="round" d="M 1638,2346 L 1788,2346"/>
 <path fill="none" stroke="rgb(179,179,179)" stroke-linejoin="round" d="M 1638,2346 L 1788,2346"/>
 <path fill="none" stroke="rgb(179,179,179)" stroke-linejoin="round" d="M 1788,7468 L 1788,2346"/>
 <path fill="none" stroke="rgb(87,157,28)" stroke-linejoin="round" d="M 2972,4495 L 3579,4878 4165,5066 4762,5246 5369,5286 5945,5479 6552,5521 7139,5620 7734,5752 8341,5756 8917,5856 9524,5811 10111,3021"/>
 <path fill="rgb(87,157,28)" stroke="none" d="M 2897,4420 L 2972,4570 3047,4420 2897,4420 Z"/>
 <path fill="none" stroke="rgb(87,157,28)" stroke-linejoin="round" d="M 2897,4420 L 2972,4570 3047,4420 2897,4420 Z"/>
 <path fill="rgb(87,157,28)" stroke="none" d="M 3504,4803 L 3579,4953 3654,4803 3504,4803 Z"/>
 <path fill="none" stroke="rgb(87,157,28)" stroke-linejoin="round" d="M 3504,4803 L 3579,4953 3654,4803 3504,4803 Z"/>
 <path fill="rgb(87,157,28)" stroke="none" d="M 4090,4991 L 4165,5141 4240,4991 4090,4991 Z"/>
 <path fill="none" stroke="rgb(87,157,28)" stroke-linejoin="round" d="M 4090,4991 L 4165,5141 4240,4991 4090,4991 Z"/>
 <path fill="rgb(87,157,28)" stroke="none" d="M 4687,5171 L 4762,5321 4837,5171 4687,5171 Z"/>
 <path fill="none" stroke="rgb(87,157,28)" stroke-linejoin="round" d="M 4687,5171 L 4762,5321 4837,5171 4687,5171 Z"/>
 <path fill="rgb(87,157,28)" stroke="none" d="M 5294,5211 L 5369,5361 5444,5211 5294,5211 Z"/>
 <path fill="none" stroke="rgb(87,157,28)" stroke-linejoin="round" d="M 5294,5211 L 5369,5361 5444,5211 5294,5211 Z"/>
 <path fill="rgb(87,157,28)" stroke="none" d="M 5870,5404 L 5945,5554 6020,5404 5870,5404 Z"/>
 <path fill="none" stroke="rgb(87,157,28)" stroke-linejoin="round" d="M 5870,5404 L 5945,5554 6020,5404 5870,5404 Z"/>
 <path fill="rgb(87,157,28)" stroke="none" d="M 6477,5446 L 6552,5596 6627,5446 6477,5446 Z"/>
 <path fill="none" stroke="rgb(87,157,28)" stroke-linejoin="round" d="M 6477,5446 L 6552,5596 6627,5446 6477,5446 Z"/>
 <path fill="rgb(87,157,28)" stroke="none" d="M 7064,5545 L 7139,5695 7214,5545 7064,5545 Z"/>
 <path fill="none" stroke="rgb(87,157,28)" stroke-linejoin="round" d="M 7064,5545 L 7139,5695 7214,5545 7064,5545 Z"/>
 <path fill="rgb(87,157,28)" stroke="none" d="M 7659,5677 L 7734,5827 7809,5677 7659,5677 Z"/>
 <path fill="none" stroke="rgb(87,157,28)" stroke-linejoin="round" d="M 7659,5677 L 7734,5827 7809,5677 7659,5677 Z"/>
 <path fill="rgb(87,157,28)" stroke="none" d="M 8266,5681 L 8341,5831 8416,5681 8266,5681 Z"/>
 <path fill="none" stroke="rgb(87,157,28)" stroke-linejoin="round" d="M 8266,5681 L 8341,5831 8416,5681 8266,5681 Z"/>
 <path fill="rgb(87,157,28)" stroke="none" d="M 8842,5781 L 8917,5931 8992,5781 8842,5781 Z"/>
 <path fill="none" stroke="rgb(87,157,28)" stroke-linejoin="round" d="M 8842,5781 L 8917,5931 8992,5781 8842,5781 Z"/>
 <path fill="rgb(87,157,28)" stroke="none" d="M 9449,5736 L 9524,5886 9599,5736 9449,5736 Z"/>
 <path fill="none" stroke="rgb(87,157,28)" stroke-linejoin="round" d="M 9449,5736 L 9524,5886 9599,5736 9449,5736 Z"/>
 <path fill="rgb(87,157,28)" stroke="none" d="M 10036,2946 L 10111,3096 10186,2946 10036,2946 Z"/>
 <path fill="none" stroke="rgb(87,157,28)" stroke-linejoin="round" d="M 10036,2946 L 10111,3096 10186,2946 10036,2946 Z"/>
 <path fill="none" stroke="rgb(255,66,14)" stroke-linejoin="round" d="M 2972,5221 L 3579,5604 4165,5523 4762,5688 5369,5723 5945,5829 6552,5889 7139,5939 7734,5990 8341,6065 8917,6143 9524,6198 10111,6071 10419,4956"/>
 <path fill="rgb(255,66,14)" stroke="none" d="M 2922,5221 L 2972,5271 3022,5221 2972,5171 2922,5221 Z"/>
 <path fill="none" stroke="rgb(255,66,14)" stroke-linejoin="round" d="M 2922,5221 L 2972,5271 3022,5221 2972,5171 2922,5221 Z"/>
 <path fill="rgb(255,66,14)" stroke="none" d="M 3529,5604 L 3579,5654 3629,5604 3579,5554 3529,5604 Z"/>
 <path fill="none" stroke="rgb(255,66,14)" stroke-linejoin="round" d="M 3529,5604 L 3579,5654 3629,5604 3579,5554 3529,5604 Z"/>
 <path fill="rgb(255,66,14)" stroke="none" d="M 4115,5523 L 4165,5573 4215,5523 4165,5473 4115,5523 Z"/>
 <path fill="none" stroke="rgb(255,66,14)" stroke-linejoin="round" d="M 4115,5523 L 4165,5573 4215,5523 4165,5473 4115,5523 Z"/>
 <path fill="rgb(255,66,14)" stroke="none" d="M 4712,5688 L 4762,5738 4812,5688 4762,5638 4712,5688 Z"/>
 <path fill="none" stroke="rgb(255,66,14)" stroke-linejoin="round" d="M 4712,5688 L 4762,5738 4812,5688 4762,5638 4712,5688 Z"/>
 <path fill="rgb(255,66,14)" stroke="none" d="M 5319,5723 L 5369,5773 5419,5723 5369,5673 5319,5723 Z"/>
 <path fill="none" stroke="rgb(255,66,14)" stroke-linejoin="round" d="M 5319,5723 L 5369,5773 5419,5723 5369,5673 5319,5723 Z"/>
 <path fill="rgb(255,66,14)" stroke="none" d="M 5895,5829 L 5945,5879 5995,5829 5945,5779 5895,5829 Z"/>
 <path fill="none" stroke="rgb(255,66,14)" stroke-linejoin="round" d="M 5895,5829 L 5945,5879 5995,5829 5945,5779 5895,5829 Z"/>
 <path fill="rgb(255,66,14)" stroke="none" d="M 6502,5889 L 6552,5939 6602,5889 6552,5839 6502,5889 Z"/>
 <path fill="none" stroke="rgb(255,66,14)" stroke-linejoin="round" d="M 6502,5889 L 6552,5939 6602,5889 6552,5839 6502,5889 Z"/>
 <path fill="rgb(255,66,14)" stroke="none" d="M 7089,5939 L 7139,5989 7189,5939 7139,5889 7089,5939 Z"/>
 <path fill="none" stroke="rgb(255,66,14)" stroke-linejoin="round" d="M 7089,5939 L 7139,5989 7189,5939 7139,5889 7089,5939 Z"/>
 <path fill="rgb(255,66,14)" stroke="none" d="M 7684,5990 L 7734,6040 7784,5990 7734,5940 7684,5990 Z"/>
 <path fill="none" stroke="rgb(255,66,14)" stroke-linejoin="round" d="M 7684,5990 L 7734,6040 7784,5990 7734,5940 7684,5990 Z"/>
 <path fill="rgb(255,66,14)" stroke="none" d="M 8291,6065 L 8341,6115 8391,6065 8341,6015 8291,6065 Z"/>
 <path fill="none" stroke="rgb(255,66,14)" stroke-linejoin="round" d="M 8291,6065 L 8341,6115 8391,6065 8341,6015 8291,6065 Z"/>
 <path fill="rgb(255,66,14)" stroke="none" d="M 8867,6143 L 8917,6193 8967,6143 8917,6093 8867,6143 Z"/>
 <path fill="none" stroke="rgb(255,66,14)" stroke-linejoin="round" d="M 8867,6143 L 8917,6193 8967,6143 8917,6093 8867,6143 Z"/>
 <path fill="rgb(255,66,14)" stroke="none" d="M 9474,6198 L 9524,6248 9574,6198 9524,6148 9474,6198 Z"/>
 <path fill="none" stroke="rgb(255,66,14)" stroke-linejoin="round" d="M 9474,6198 L 9524,6248 9574,6198 9524,6148 9474,6198 Z"/>
 <path fill="rgb(255,66,14)" stroke="none" d="M 10061,6071 L 10111,6121 10161,6071 10111,6021 10061,6071 Z"/>
 <path fill="none" stroke="rgb(255,66,14)" stroke-linejoin="round" d="M 10061,6071 L 10111,6121 10161,6071 10111,6021 10061,6071 Z"/>
 <path fill="rgb(255,66,14)" stroke="none" d="M 10369,4956 L 10419,5006 10469,4956 10419,4906 10369,4956 Z"/>
 <path fill="none" stroke="rgb(255,66,14)" stroke-linejoin="round" d="M 10369,4956 L 10419,5006 10469,4956 10419,4906 10369,4956 Z"/>
 <path fill="none" stroke="rgb(0,69,134)" stroke-linejoin="round" d="M 2972,6233 L 3579,6297 4165,6371 4762,6446 5369,6410 5945,6390 6552,6402 7139,6351 7734,6390 8341,6417 8917,6452 9524,6493 10111,6530 10419,6522 10708,6469"/>
 <path fill="rgb(0,69,134)" stroke="none" d="M 2922,6183 L 2922,6283 3022,6283 3022,6183 2922,6183 Z"/>
 <path fill="none" stroke="rgb(0,69,134)" stroke-linejoin="round" d="M 2922,6183 L 2922,6283 3022,6283 3022,6183 2922,6183 Z"/>
 <path fill="rgb(0,69,134)" stroke="none" d="M 3529,6247 L 3529,6347 3629,6347 3629,6247 3529,6247 Z"/>
 <path fill="none" stroke="rgb(0,69,134)" stroke-linejoin="round" d="M 3529,6247 L 3529,6347 3629,6347 3629,6247 3529,6247 Z"/>
 <path fill="rgb(0,69,134)" stroke="none" d="M 4115,6321 L 4115,6421 4215,6421 4215,6321 4115,6321 Z"/>
 <path fill="none" stroke="rgb(0,69,134)" stroke-linejoin="round" d="M 4115,6321 L 4115,6421 4215,6421 4215,6321 4115,6321 Z"/>
 <path fill="rgb(0,69,134)" stroke="none" d="M 4712,6396 L 4712,6496 4812,6496 4812,6396 4712,6396 Z"/>
 <path fill="none" stroke="rgb(0,69,134)" stroke-linejoin="round" d="M 4712,6396 L 4712,6496 4812,6496 4812,6396 4712,6396 Z"/>
 <path fill="rgb(0,69,134)" stroke="none" d="M 5319,6360 L 5319,6460 5419,6460 5419,6360 5319,6360 Z"/>
 <path fill="none" stroke="rgb(0,69,134)" stroke-linejoin="round" d="M 5319,6360 L 5319,6460 5419,6460 5419,6360 5319,6360 Z"/>
 <path fill="rgb(0,69,134)" stroke="none" d="M 5895,6340 L 5895,6440 5995,6440 5995,6340 5895,6340 Z"/>
 <path fill="none" stroke="rgb(0,69,134)" stroke-linejoin="round" d="M 5895,6340 L 5895,6440 5995,6440 5995,6340 5895,6340 Z"/>
 <path fill="rgb(0,69,134)" stroke="none" d="M 6502,6352 L 6502,6452 6602,6452 6602,6352 6502,6352 Z"/>
 <path fill="none" stroke="rgb(0,69,134)" stroke-linejoin="round" d="M 6502,6352 L 6502,6452 6602,6452 6602,6352 6502,6352 Z"/>
 <path fill="rgb(0,69,134)" stroke="none" d="M 7089,6301 L 7089,6401 7189,6401 7189,6301 7089,6301 Z"/>
 <path fill="none" stroke="rgb(0,69,134)" stroke-linejoin="round" d="M 7089,6301 L 7089,6401 7189,6401 7189,6301 7089,6301 Z"/>
 <path fill="rgb(0,69,134)" stroke="none" d="M 7684,6340 L 7684,6440 7784,6440 7784,6340 7684,6340 Z"/>
 <path fill="none" stroke="rgb(0,69,134)" stroke-linejoin="round" d="M 7684,6340 L 7684,6440 7784,6440 7784,6340 7684,6340 Z"/>
 <path fill="rgb(0,69,134)" stroke="none" d="M 8291,6367 L 8291,6467 8391,6467 8391,6367 8291,6367 Z"/>
 <path fill="none" stroke="rgb(0,69,134)" stroke-linejoin="round" d="M 8291,6367 L 8291,6467 8391,6467 8391,6367 8291,6367 Z"/>
 <path fill="rgb(0,69,134)" stroke="none" d="M 8867,6402 L 8867,6502 8967,6502 8967,6402 8867,6402 Z"/>
 <path fill="none" stroke="rgb(0,69,134)" stroke-linejoin="round" d="M 8867,6402 L 8867,6502 8967,6502 8967,6402 8867,6402 Z"/>
 <path fill="rgb(0,69,134)" stroke="none" d="M 9474,6443 L 9474,6543 9574,6543 9574,6443 9474,6443 Z"/>
 <path fill="none" stroke="rgb(0,69,134)" stroke-linejoin="round" d="M 9474,6443 L 9474,6543 9574,6543 9574,6443 9474,6443 Z"/>
 <path fill="rgb(0,69,134)" stroke="none" d="M 10061,6480 L 10061,6580 10161,6580 10161,6480 10061,6480 Z"/>
 <path fill="none" stroke="rgb(0,69,134)" stroke-linejoin="round" d="M 10061,6480 L 10061,6580 10161,6580 10161,6480 10061,6480 Z"/>
 <path fill="rgb(0,69,134)" stroke="none" d="M 10369,6472 L 10369,6572 10469,6572 10469,6472 10369,6472 Z"/>
 <path fill="none" stroke="rgb(0,69,134)" stroke-linejoin="round" d="M 10369,6472 L 10369,6572 10469,6572 10469,6472 10369,6472 Z"/>
 <path fill="rgb(0,69,134)" stroke="none" d="M 10658,6419 L 10658,6519 10758,6519 10758,6419 10658,6419 Z"/>
 <path fill="none" stroke="rgb(0,69,134)" stroke-linejoin="round" d="M 10658,6419 L 10658,6519 10758,6519 10758,6419 10658,6419 Z"/>
 <text class="TextShape"><tspan class="TextParagraph" font-family="Liberation Sans" font-size="353px" font-weight="400"><tspan class="TextPosition" x="1457" y="8036"><tspan fill="rgb(0,0,0)" stroke="none">0.10</tspan></tspan></tspan></text>
 <text class="TextShape"><tspan class="TextParagraph" font-family="Liberation Sans" font-size="353px" font-weight="400"><tspan class="TextPosition" x="2944" y="8036"><tspan fill="rgb(0,0,0)" stroke="none">0.32</tspan></tspan></tspan></text>
 <text class="TextShape"><tspan class="TextParagraph" font-family="Liberation Sans" font-size="353px" font-weight="400"><tspan class="TextPosition" x="4431" y="8036"><tspan fill="rgb(0,0,0)" stroke="none">1.00</tspan></tspan></tspan></text>
 <text class="TextShape"><tspan class="TextParagraph" font-family="Liberation Sans" font-size="353px" font-weight="400"><tspan class="TextPosition" x="5917" y="8036"><tspan fill="rgb(0,0,0)" stroke="none">3.16</tspan></tspan></tspan></text>
 <text class="TextShape"><tspan class="TextParagraph" font-family="Liberation Sans" font-size="353px" font-weight="400"><tspan class="TextPosition" x="7311" y="8036"><tspan fill="rgb(0,0,0)" stroke="none">10.00</tspan></tspan></tspan></text>
 <text class="TextShape"><tspan class="TextParagraph" font-family="Liberation Sans" font-size="353px" font-weight="400"><tspan class="TextPosition" x="8798" y="8036"><tspan fill="rgb(0,0,0)" stroke="none">31.62</tspan></tspan></tspan></text>
 <text class="TextShape"><tspan class="TextParagraph" font-family="Liberation Sans" font-size="353px" font-weight="400"><tspan class="TextPosition" x="10193" y="8036"><tspan fill="rgb(0,0,0)" stroke="none">100.00</tspan></tspan></tspan></text>
 <text class="TextShape"><tspan class="TextParagraph" font-family="Liberation Sans" font-size="353px" font-weight="400"><tspan class="TextPosition" x="1353" y="7589"><tspan fill="rgb(0,0,0)" stroke="none">0</tspan></tspan></tspan></text>
 <text class="TextShape"><tspan class="TextParagraph" font-family="Liberation Sans" font-size="353px" font-weight="400"><tspan class="TextPosition" x="1353" y="7019"><tspan fill="rgb(0,0,0)" stroke="none">2</tspan></tspan></tspan></text>
 <text class="TextShape"><tspan class="TextParagraph" font-family="Liberation Sans" font-size="353px" font-weight="400"><tspan class="TextPosition" x="1353" y="6450"><tspan fill="rgb(0,0,0)" stroke="none">4</tspan></tspan></tspan></text>
 <text class="TextShape"><tspan class="TextParagraph" font-family="Liberation Sans" font-size="353px" font-weight="400"><tspan class="TextPosition" x="1353" y="5881"><tspan fill="rgb(0,0,0)" stroke="none">6</tspan></tspan></tspan></text>
 <text class="TextShape"><tspan class="TextParagraph" font-family="Liberation Sans" font-size="353px" font-weight="400"><tspan class="TextPosition" x="1353" y="5312"><tspan fill="rgb(0,0,0)" stroke="none">8</tspan></tspan></tspan></text>
 <text class="TextShape"><tspan class="TextParagraph" font-family="Liberation Sans" font-size="353px" font-weight="400"><tspan class="TextPosition" x="1168" y="4742"><tspan fill="rgb(0,0,0)" stroke="none">10</tspan></tspan></tspan></text>
 <text class="TextShape"><tspan class="TextParagraph" font-family="Liberation Sans" font-size="353px" font-weight="400"><tspan class="TextPosition" x="1168" y="4173"><tspan fill="rgb(0,0,0)" stroke="none">12</tspan></tspan></tspan></text>
 <text class="TextShape"><tspan class="TextParagraph" font-family="Liberation Sans" font-size="353px" font-weight="400"><tspan class="TextPosition" x="1168" y="3604"><tspan fill="rgb(0,0,0)" stroke="none">14</tspan></tspan></tspan></text>
 <text class="TextShape"><tspan class="TextParagraph" font-family="Liberation Sans" font-size="353px" font-weight="400"><tspan class="TextPosition" x="1168" y="3035"><tspan fill="rgb(0,0,0)" stroke="none">16</tspan></tspan></tspan></text>
 <text class="TextShape"><tspan class="TextParagraph" font-family="Liberation Sans" font-size="353px" font-weight="400"><tspan class="TextPosition" x="1168" y="2466"><tspan fill="rgb(0,0,0)" stroke="none">18</tspan></tspan></tspan></text>
 <text class="TextShape"><tspan class="TextParagraph" font-family="Liberation Sans" font-size="459px" font-weight="400"><tspan class="TextPosition" x="6735" y="851"><tspan fill="rgb(0,0,0)" stroke="none">CT No.6</tspan></tspan></tspan></text>
 <text class="TextShape"><tspan class="TextParagraph" font-family="Liberation Sans" font-size="388px" font-weight="400"><tspan class="TextPosition" x="6444" y="1766"><tspan fill="rgb(0,0,0)" stroke="none"> </tspan><tspan fill="rgb(0,0,0)" stroke="none">Phase Error</tspan></tspan></tspan></text>
 <path fill="none" stroke="rgb(0,69,134)" stroke-linejoin="round" d="M 11815,4167 L 12615,4167"/>
 <path fill="rgb(0,69,134)" stroke="none" d="M 12120,4072 L 12120,4262 12310,4262 12310,4072 12120,4072 Z"/>
 <path fill="none" stroke="rgb(0,69,134)" stroke-linejoin="round" d="M 12120,4072 L 12120,4262 12310,4262 12310,4072 12120,4072 Z"/>
 <path fill="none" stroke="rgb(255,66,14)" stroke-linejoin="round" d="M 11815,4638 L 12615,4638"/>
 <path fill="rgb(255,66,14)" stroke="none" d="M 12120,4638 L 12215,4732 12310,4638 12215,4543 12120,4638 Z"/>
 <path fill="none" stroke="rgb(255,66,14)" stroke-linejoin="round" d="M 12120,4638 L 12215,4732 12310,4638 12215,4543 12120,4638 Z"/>
 <path fill="none" stroke="rgb(87,157,28)" stroke-linejoin="round" d="M 11815,5108 L 12615,5108"/>
 <path fill="rgb(87,157,28)" stroke="none" d="M 12120,5013 L 12215,5203 12310,5013 12120,5013 Z"/>
 <path fill="none" stroke="rgb(87,157,28)" stroke-linejoin="round" d="M 12120,5013 L 12215,5203 12310,5013 12120,5013 Z"/>
 <text class="TextShape"><tspan class="TextParagraph" font-family="Liberation Sans" font-size="318px" font-weight="400"><tspan class="TextPosition" x="12715" y="4273"><tspan fill="rgb(0,0,0)" stroke="none">22 Ω Burden</tspan></tspan></tspan></text>
 <text class="TextShape"><tspan class="TextParagraph" font-family="Liberation Sans" font-size="318px" font-weight="400"><tspan class="TextPosition" x="12715" y="4743"><tspan fill="rgb(0,0,0)" stroke="none">120 Ω Burden</tspan></tspan></tspan></text>
 <text class="TextShape"><tspan class="TextParagraph" font-family="Liberation Sans" font-size="318px" font-weight="400"><tspan class="TextPosition" x="12715" y="5214"><tspan fill="rgb(0,0,0)" stroke="none">220 Ω Burden</tspan></tspan></tspan></text>
 <text class="TextShape"><tspan class="TextParagraph" font-family="Liberation Sans" font-size="318px" font-weight="400"><tspan class="TextPosition" x="4993" y="8688"><tspan fill="rgb(0,0,0)" stroke="none">Primary Current (A)</tspan></tspan></tspan></text>
 <text class="TextShape" transform="translate(879,6110) rotate(-90) translate(-879,-6110)"><tspan class="TextParagraph" font-family="Liberation Sans" font-size="318px" font-weight="400"><tspan class="TextPosition" x="879" y="6110"><tspan fill="rgb(0,0,0)" stroke="none">Degrees lead</tspan></tspan></tspan></text>
</svg>